<svg xmlns="http://www.w3.org/2000/svg" xmlns:xlink="http://www.w3.org/1999/xlink" width="547" zoomAndPan="magnify" viewBox="0 0 410.25 149.249994" height="199" preserveAspectRatio="xMidYMid meet" version="1.2"><defs><clipPath id="158b10af33"><path d="M 0.652344 0 L 408.851562 0 L 408.851562 148.503906 L 0.652344 148.503906 Z M 0.652344 0 "/></clipPath><clipPath id="6117173fb0"><path d="M 22 36 L 408.105469 36 L 408.105469 147.757812 L 22 147.757812 Z M 22 36 "/></clipPath><clipPath id="f3cd6ef7f6"><path d="M 0.652344 0 L 383 0 L 383 131 L 0.652344 131 Z M 0.652344 0 "/></clipPath><clipPath id="ed9cb617c9"><path d="M 28.507812 67.195312 L 66.566406 67.195312 L 66.566406 114.957031 L 28.507812 114.957031 Z M 28.507812 67.195312 "/></clipPath><clipPath id="8da951ccbb"><path d="M 28.507812 90 L 66.566406 90 L 66.566406 114.957031 L 28.507812 114.957031 Z M 28.507812 90 "/></clipPath><clipPath id="cc6ab94fff"><path d="M 138.144531 69 L 189.632812 69 L 189.632812 113 L 138.144531 113 Z M 138.144531 69 "/></clipPath><clipPath id="160da4a3d8"><path d="M 138.144531 67.195312 L 189.632812 67.195312 L 189.632812 114.957031 L 138.144531 114.957031 Z M 138.144531 67.195312 "/></clipPath><clipPath id="89813909a5"><path d="M 84.730469 67.195312 L 126.519531 67.195312 L 126.519531 114.957031 L 84.730469 114.957031 Z M 84.730469 67.195312 "/></clipPath><clipPath id="1988ecb143"><path d="M 196.839844 69 L 278 69 L 278 111 L 196.839844 111 Z M 196.839844 69 "/></clipPath><clipPath id="f16d050e8e"><path d="M 296.058594 66.59375 L 329 66.59375 L 329 100 L 296.058594 100 Z M 296.058594 66.59375 "/></clipPath><clipPath id="b0c41f2139"><path d="M 307 77 L 340.085938 77 L 340.085938 110.621094 L 307 110.621094 Z M 307 77 "/></clipPath></defs><g id="1df124c42b"><g clip-rule="nonzero" clip-path="url(#158b10af33)"><path style=" stroke:none;fill-rule:nonzero;fill:#ffffff;fill-opacity:1;" d="M 0.652344 0 L 408.851562 0 L 408.851562 148.503906 L 0.652344 148.503906 Z M 0.652344 0 "/></g><g clip-rule="nonzero" clip-path="url(#6117173fb0)"><path style=" stroke:none;fill-rule:evenodd;fill:#ffe500;fill-opacity:1;" d="M 408.082031 38.394531 C 408.082031 37.589844 407.429688 36.941406 406.625 36.941406 L 24.402344 36.941406 C 23.601562 36.941406 22.949219 37.589844 22.949219 38.394531 L 22.949219 146.246094 C 22.949219 147.046875 23.601562 147.699219 24.402344 147.699219 L 406.625 147.699219 C 407.429688 147.699219 408.082031 147.046875 408.082031 146.246094 Z M 405.175781 39.847656 C 405.175781 39.847656 405.175781 132.050781 405.175781 144.789062 C 405.175781 144.789062 25.855469 144.789062 25.855469 144.789062 C 25.855469 144.789062 25.855469 52.585938 25.855469 39.847656 C 51.40625 39.847656 405.175781 39.847656 405.175781 39.847656 Z M 405.175781 39.847656 "/></g><g clip-rule="nonzero" clip-path="url(#f3cd6ef7f6)"><path style=" stroke:none;fill-rule:evenodd;fill:#ffffff;fill-opacity:1;" d="M 0.675781 0 L 382.898438 0 L 382.898438 130.714844 L 0.675781 130.714844 Z M 0.675781 0 "/></g><g clip-rule="nonzero" clip-path="url(#ed9cb617c9)"><path style="fill:none;stroke-width:2.13;stroke-linecap:butt;stroke-linejoin:miter;stroke:#000000;stroke-opacity:1;stroke-miterlimit:10;" d="M 189.370536 133.304395 L 322.749047 133.304395 C 324.080132 133.304395 325.372634 133.439224 326.665136 133.708883 C 327.976929 133.959281 329.230849 134.344508 330.446187 134.845303 C 331.661525 135.365359 332.81899 135.981722 333.918581 136.713654 C 335.018173 137.445585 336.0406 138.293084 336.966571 139.217629 C 337.911834 140.142173 338.741351 141.163025 339.474412 142.260922 C 340.207472 143.358819 340.824787 144.514499 341.345646 145.747226 C 341.847214 146.960691 342.233036 148.212678 342.48382 149.52245 C 342.753895 150.81296 342.869641 152.122732 342.888932 153.432504 L 342.888932 346.527517 C 342.869641 347.85655 342.753895 349.166322 342.48382 350.456832 C 342.233036 351.747343 341.847214 353.018592 341.345646 354.232057 C 340.824787 355.445522 340.207472 356.620464 339.474412 357.718361 C 338.741351 358.816257 337.911834 359.837109 336.966571 360.761654 C 336.0406 361.70546 335.018173 362.533698 333.918581 363.265629 C 332.81899 363.99756 331.661525 364.633185 330.446187 365.13398 C 329.230849 365.654036 327.976929 366.020002 326.684427 366.289661 C 325.372634 366.559319 324.080132 366.694149 322.749047 366.694149 L 189.370536 366.694149 C 188.058742 366.694149 186.746949 366.559319 185.454447 366.289661 C 184.161945 366.039263 182.888734 365.654036 181.673396 365.13398 C 180.458058 364.633185 179.300593 364.016821 178.201002 363.265629 C 177.10141 362.533698 176.078983 361.70546 175.153011 360.761654 C 174.207749 359.837109 173.378232 358.816257 172.645171 357.718361 C 171.91211 356.620464 171.275505 355.464783 170.773937 354.232057 C 170.272369 353.018592 169.886547 351.747343 169.616472 350.456832 C 169.365688 349.166322 169.230651 347.85655 169.230651 346.527517 L 169.230651 343.445702 L 290.455783 343.445702 C 292.751421 343.407179 295.008477 343.13752 297.265533 342.655986 C 299.503298 342.174453 301.663899 341.481044 303.785918 340.595022 C 305.888645 339.689739 307.875626 338.591842 309.766152 337.28207 C 311.656677 335.99156 313.412166 334.527698 315.013325 332.909744 C 316.633776 331.27253 318.061315 329.500486 319.315235 327.574351 C 320.588446 325.667478 321.649456 323.645036 322.517554 321.526288 C 323.385653 319.407539 324.041549 317.231007 324.485244 314.977429 C 324.928939 312.723852 325.141141 310.451013 325.141141 308.158912 C 325.141141 305.866812 324.928939 303.593973 324.485244 301.359656 C 324.041549 299.106079 323.385653 296.929546 322.517554 294.810798 C 321.649456 292.672788 320.588446 290.669608 319.315235 288.743473 C 318.061315 286.8366 316.633776 285.064556 315.013325 283.427341 C 313.412166 281.790127 311.656677 280.326264 309.766152 279.035754 C 307.875626 277.745244 305.888645 276.647347 303.785918 275.742063 C 301.663899 274.83678 299.503298 274.143372 297.265533 273.661838 C 295.008477 273.180304 292.751421 272.929907 290.455783 272.891384 L 169.230651 272.891384 L 169.230651 153.432504 C 169.230651 152.122732 169.365688 150.81296 169.635763 149.52245 C 169.886547 148.212678 170.272369 146.960691 170.773937 145.747226 C 171.294796 144.514499 171.91211 143.358819 172.645171 142.260922 C 173.378232 141.163025 174.207749 140.142173 175.153011 139.217629 C 176.078983 138.273823 177.10141 137.445585 178.201002 136.713654 C 179.300593 135.981722 180.458058 135.365359 181.673396 134.845303 C 182.908025 134.344508 184.161945 133.959281 185.454447 133.708883 C 186.746949 133.439224 188.058742 133.304395 189.370536 133.304395 Z M 189.370536 133.304395 " transform="matrix(0.20249,0,0,0.202803,-3.087824,40.375688)"/></g><g clip-rule="nonzero" clip-path="url(#8da951ccbb)"><path style="fill:none;stroke-width:2.13;stroke-linecap:butt;stroke-linejoin:miter;stroke:#000000;stroke-opacity:1;stroke-miterlimit:10;" d="M 157.115854 279.343936 L 290.455783 279.343936 C 292.346309 279.363197 294.217543 279.55581 296.069487 279.921776 C 297.92143 280.287742 299.7155 280.846321 301.470988 281.578252 C 303.207185 282.290922 304.866218 283.196205 306.428795 284.236318 C 308.010664 285.295692 309.457495 286.489896 310.788579 287.818929 C 312.119663 289.147962 313.31571 290.611824 314.376719 292.171993 C 315.418438 293.751424 316.305827 295.4079 317.038888 297.141421 C 317.752658 298.894204 318.312099 300.685509 318.67863 302.534599 C 319.064451 304.383688 319.257362 306.252039 319.257362 308.158912 C 319.257362 310.046524 319.064451 311.914875 318.697921 313.763964 C 318.33139 315.613054 317.771949 317.423621 317.058179 319.176403 C 316.325118 320.909925 315.437729 322.566401 314.39601 324.145831 C 313.335001 325.725262 312.138954 327.169863 310.80787 328.518157 C 309.476786 329.84719 308.010664 331.041394 306.448086 332.100768 C 304.885509 333.160142 303.226476 334.046164 301.470988 334.778095 C 299.734791 335.490765 297.92143 336.049344 296.069487 336.434571 C 294.217543 336.800537 292.346309 336.99315 290.455783 336.99315 L 157.115854 336.99315 Z M 157.115854 279.343936 " transform="matrix(0.20249,0,0,0.202803,-3.087824,40.375688)"/></g><path style=" stroke:none;fill-rule:nonzero;fill:#202c14;fill-opacity:1;" d="M 34.949219 105.601562 L 36.0625 105.601562 L 36.0625 103.246094 L 38.476562 103.246094 L 38.476562 105.601562 L 39.585938 105.601562 L 39.585938 100.144531 L 38.476562 100.144531 L 38.476562 102.230469 L 36.0625 102.230469 L 36.0625 100.144531 L 34.949219 100.144531 Z M 42.0625 105.601562 L 43.175781 105.601562 L 43.175781 101.15625 L 44.925781 101.15625 L 44.925781 100.144531 L 40.320312 100.144531 L 40.320312 101.15625 L 42.066406 101.15625 Z M 50.625 100.046875 L 48.324219 102.996094 L 46.023438 100.046875 L 45.660156 100.046875 L 45.660156 105.601562 L 46.773438 105.601562 L 46.773438 102.691406 L 48.140625 104.410156 L 48.507812 104.410156 L 49.875 102.691406 L 49.875 105.601562 L 50.988281 105.601562 L 50.988281 100.046875 Z M 52.246094 105.601562 L 55.738281 105.601562 L 55.738281 104.585938 L 53.359375 104.585938 L 53.359375 100.144531 L 52.246094 100.144531 Z M 52.246094 105.601562 "/><path style=" stroke:none;fill-rule:evenodd;fill:#f0652a;fill-opacity:1;" d="M 41.738281 75.332031 L 55.785156 75.332031 C 55.898438 75.332031 55.988281 75.371094 56.0625 75.453125 C 56.132812 75.535156 56.164062 75.632812 56.152344 75.742188 L 54.824219 90.246094 C 54.804688 90.414062 54.714844 90.523438 54.554688 90.574219 L 48.886719 92.246094 C 48.8125 92.269531 48.738281 92.269531 48.667969 92.246094 L 43.074219 90.480469 C 42.914062 90.433594 42.828125 90.328125 42.820312 90.160156 L 41.382812 75.742188 C 41.367188 75.636719 41.394531 75.542969 41.460938 75.460938 C 41.535156 75.378906 41.625 75.335938 41.734375 75.339844 Z M 41.738281 75.332031 "/><path style=" stroke:none;fill-rule:evenodd;fill:#ffffff;fill-opacity:1;" d="M 50.277344 86.238281 L 48.859375 86.625 C 48.792969 86.640625 48.722656 86.640625 48.65625 86.625 L 47.238281 86.238281 C 47.066406 86.199219 46.976562 86.085938 46.964844 85.910156 L 46.90625 85.195312 C 46.898438 85.097656 46.859375 85.015625 46.785156 84.949219 C 46.714844 84.882812 46.628906 84.851562 46.53125 84.851562 L 45.695312 84.851562 C 45.585938 84.851562 45.492188 84.890625 45.417969 84.972656 C 45.34375 85.050781 45.3125 85.148438 45.320312 85.257812 L 45.492188 87.148438 C 45.511719 87.316406 45.601562 87.425781 45.765625 87.46875 L 48.675781 88.320312 C 48.742188 88.335938 48.808594 88.335938 48.878906 88.320312 L 51.785156 87.488281 C 51.949219 87.4375 52.039062 87.328125 52.054688 87.15625 L 52.4375 82.925781 C 52.449219 82.816406 52.417969 82.722656 52.34375 82.640625 C 52.269531 82.558594 52.179688 82.519531 52.070312 82.519531 L 47.027344 82.519531 C 46.929688 82.519531 46.84375 82.488281 46.773438 82.421875 C 46.703125 82.355469 46.660156 82.273438 46.652344 82.175781 L 46.578125 81.273438 C 46.574219 81.164062 46.605469 81.066406 46.675781 80.984375 C 46.75 80.902344 46.839844 80.863281 46.953125 80.863281 L 52.253906 80.863281 C 52.351562 80.863281 52.4375 80.832031 52.507812 80.765625 C 52.582031 80.699219 52.621094 80.617188 52.628906 80.519531 L 52.691406 79.667969 C 52.699219 79.5625 52.667969 79.464844 52.59375 79.386719 C 52.523438 79.304688 52.429688 79.261719 52.320312 79.265625 L 45.207031 79.265625 C 45.097656 79.261719 45.003906 79.304688 44.929688 79.386719 C 44.855469 79.46875 44.824219 79.5625 44.832031 79.671875 L 45.191406 83.753906 C 45.199219 83.851562 45.238281 83.933594 45.308594 84 C 45.382812 84.066406 45.464844 84.097656 45.5625 84.101562 L 50.3125 84.101562 C 50.421875 84.097656 50.511719 84.140625 50.585938 84.222656 C 50.660156 84.304688 50.691406 84.398438 50.683594 84.507812 L 50.550781 85.910156 C 50.539062 86.085938 50.449219 86.195312 50.277344 86.238281 Z M 50.277344 86.238281 "/><path style=" stroke:none;fill-rule:nonzero;fill:#00d8ff;fill-opacity:1;" d="M 168.488281 91.035156 C 168.488281 91.332031 168.457031 91.628906 168.398438 91.921875 C 168.339844 92.214844 168.253906 92.5 168.136719 92.777344 C 168.019531 93.054688 167.878906 93.316406 167.710938 93.566406 C 167.542969 93.8125 167.351562 94.042969 167.140625 94.253906 C 166.925781 94.464844 166.695312 94.65625 166.441406 94.820312 C 166.191406 94.988281 165.925781 95.128906 165.648438 95.242188 C 165.371094 95.355469 165.082031 95.445312 164.785156 95.5 C 164.488281 95.558594 164.191406 95.589844 163.890625 95.589844 C 163.585938 95.589844 163.289062 95.558594 162.992188 95.5 C 162.695312 95.445312 162.40625 95.355469 162.128906 95.242188 C 161.851562 95.128906 161.585938 94.988281 161.335938 94.820312 C 161.082031 94.65625 160.851562 94.464844 160.636719 94.253906 C 160.425781 94.042969 160.234375 93.8125 160.066406 93.566406 C 159.898438 93.316406 159.757812 93.054688 159.640625 92.777344 C 159.523438 92.5 159.4375 92.214844 159.378906 91.921875 C 159.320312 91.628906 159.289062 91.332031 159.289062 91.035156 C 159.289062 90.734375 159.320312 90.4375 159.378906 90.144531 C 159.4375 89.851562 159.523438 89.566406 159.640625 89.292969 C 159.757812 89.015625 159.898438 88.753906 160.066406 88.503906 C 160.234375 88.253906 160.425781 88.023438 160.636719 87.8125 C 160.851562 87.601562 161.082031 87.414062 161.335938 87.246094 C 161.585938 87.082031 161.851562 86.941406 162.128906 86.828125 C 162.40625 86.710938 162.695312 86.625 162.992188 86.566406 C 163.289062 86.507812 163.585938 86.480469 163.890625 86.480469 C 164.191406 86.480469 164.488281 86.507812 164.785156 86.566406 C 165.082031 86.625 165.371094 86.710938 165.648438 86.828125 C 165.925781 86.941406 166.191406 87.082031 166.441406 87.246094 C 166.695312 87.414062 166.925781 87.601562 167.140625 87.8125 C 167.351562 88.023438 167.542969 88.253906 167.710938 88.503906 C 167.878906 88.753906 168.019531 89.015625 168.136719 89.292969 C 168.253906 89.566406 168.339844 89.851562 168.398438 90.144531 C 168.457031 90.4375 168.488281 90.734375 168.488281 91.035156 Z M 168.488281 91.035156 "/><g clip-rule="nonzero" clip-path="url(#cc6ab94fff)"><path style="fill:none;stroke-width:24;stroke-linecap:butt;stroke-linejoin:miter;stroke:#00d8ff;stroke-opacity:1;stroke-miterlimit:4;" d="M 269.55119 135.632397 C 336.889725 135.632397 399.454896 145.312409 446.634489 161.531807 C 503.48867 181.106942 538.436517 210.74929 538.436517 237.638213 C 538.436517 265.602692 501.400323 297.138021 440.369448 317.35849 C 394.212718 332.631398 333.480179 340.633542 269.55119 340.633542 C 203.960048 340.633542 141.90631 333.147666 95.238148 317.186401 C 36.167762 297.008954 0.623244 265.086425 0.623244 237.638213 C 0.623244 211.007424 33.994177 181.537165 90.03859 162.005052 C 137.388661 145.484498 201.488127 135.632397 269.508571 135.632397 Z M 269.55119 135.632397 " transform="matrix(0.0916544,0,0,0.090796,139.185064,69.45856)"/></g><g clip-rule="nonzero" clip-path="url(#160da4a3d8)"><path style="fill:none;stroke-width:24;stroke-linecap:butt;stroke-linejoin:miter;stroke:#00d8ff;stroke-opacity:1;stroke-miterlimit:4;" d="M 180.732515 186.91495 C 214.401783 128.576743 254.037756 79.18717 291.670621 46.447218 C 337.017583 6.995791 380.148341 -8.492228 403.418493 4.930722 C 427.668889 18.912962 436.49109 66.753733 423.492195 129.738345 C 413.68975 177.364004 390.249121 233.938297 358.327246 289.350989 C 325.552985 346.140393 288.090597 396.1753 250.926545 428.614096 C 203.960048 469.657348 158.527847 484.543055 134.746263 470.818949 C 111.689208 457.525066 102.867007 413.900478 113.948032 355.605294 C 123.281664 306.301765 146.764913 245.855468 180.732515 186.91495 Z M 180.732515 186.91495 " transform="matrix(0.0916544,0,0,0.090796,139.185064,69.45856)"/><path style="fill:none;stroke-width:24;stroke-linecap:butt;stroke-linejoin:miter;stroke:#00d8ff;stroke-opacity:1;stroke-miterlimit:4;" d="M 180.817754 289.480056 C 147.063248 231.184872 124.091431 172.201331 114.502083 123.241981 C 102.952246 64.215418 111.135156 19.128073 134.362689 5.662101 C 158.613085 -8.363161 204.428861 7.899259 252.50346 50.620379 C 288.857745 82.887086 326.192274 131.416213 358.242007 186.785883 C 391.058888 243.489242 415.692859 300.967003 425.282207 349.367064 C 437.386096 410.54474 427.583651 457.309954 403.802067 471.077083 C 380.745011 484.45701 338.551879 470.302682 293.58849 431.582633 C 255.572052 398.885703 214.913215 348.334529 180.817754 289.480056 Z M 180.817754 289.480056 " transform="matrix(0.0916544,0,0,0.090796,139.185064,69.45856)"/></g><path style=" stroke:none;fill-rule:nonzero;fill:#000000;fill-opacity:1;" d="M 114.457031 99.035156 C 114.246094 99.035156 114.039062 98.996094 113.84375 98.914062 C 113.648438 98.835938 113.472656 98.71875 113.324219 98.570312 C 113.171875 98.421875 113.054688 98.25 112.976562 98.054688 C 112.894531 97.859375 112.851562 97.65625 112.851562 97.445312 L 112.851562 95.851562 C 112.851562 95.429688 112.769531 95.023438 112.609375 94.632812 C 112.445312 94.242188 112.210938 93.898438 111.910156 93.601562 C 111.609375 93.300781 111.261719 93.074219 110.871094 92.910156 C 110.476562 92.75 110.066406 92.667969 109.640625 92.667969 C 109.417969 92.667969 109.230469 92.746094 109.074219 92.902344 C 108.914062 93.058594 108.835938 93.246094 108.835938 93.464844 C 108.835938 93.683594 108.914062 93.871094 109.074219 94.027344 C 109.230469 94.183594 109.417969 94.261719 109.640625 94.261719 C 109.851562 94.261719 110.058594 94.300781 110.253906 94.382812 C 110.453125 94.460938 110.625 94.578125 110.777344 94.726562 C 110.925781 94.875 111.042969 95.046875 111.125 95.242188 C 111.207031 95.4375 111.246094 95.640625 111.246094 95.851562 L 111.246094 97.445312 C 111.246094 98.402344 111.609375 99.199219 112.335938 99.832031 C 111.609375 100.464844 111.246094 101.261719 111.246094 102.21875 L 111.246094 103.8125 C 111.246094 104.023438 111.207031 104.226562 111.125 104.421875 C 111.042969 104.617188 110.925781 104.789062 110.777344 104.9375 C 110.625 105.085938 110.453125 105.203125 110.253906 105.28125 C 110.058594 105.363281 109.851562 105.40625 109.640625 105.40625 C 109.417969 105.40625 109.230469 105.480469 109.074219 105.636719 C 108.914062 105.792969 108.835938 105.980469 108.835938 106.199219 C 108.835938 106.421875 108.914062 106.609375 109.074219 106.761719 C 109.230469 106.917969 109.417969 106.996094 109.640625 106.996094 C 110.066406 106.996094 110.476562 106.914062 110.871094 106.753906 C 111.261719 106.59375 111.609375 106.363281 111.910156 106.0625 C 112.210938 105.765625 112.445312 105.421875 112.609375 105.03125 C 112.769531 104.640625 112.851562 104.234375 112.851562 103.8125 L 112.851562 102.21875 C 112.851562 102.007812 112.894531 101.804688 112.976562 101.609375 C 113.054688 101.417969 113.171875 101.242188 113.324219 101.09375 C 113.472656 100.945312 113.648438 100.832031 113.84375 100.75 C 114.039062 100.667969 114.246094 100.628906 114.457031 100.628906 C 114.679688 100.628906 114.871094 100.550781 115.027344 100.394531 C 115.183594 100.238281 115.261719 100.050781 115.261719 99.832031 C 115.261719 99.613281 115.183594 99.425781 115.027344 99.269531 C 114.871094 99.113281 114.679688 99.035156 114.457031 99.035156 Z M 114.457031 99.035156 "/><path style=" stroke:none;fill-rule:nonzero;fill:#000000;fill-opacity:1;" d="M 96.792969 95.851562 C 96.792969 95.640625 96.832031 95.4375 96.914062 95.242188 C 96.996094 95.046875 97.113281 94.875 97.261719 94.726562 C 97.414062 94.578125 97.585938 94.460938 97.785156 94.382812 C 97.980469 94.300781 98.183594 94.261719 98.398438 94.261719 C 98.621094 94.261719 98.808594 94.183594 98.964844 94.027344 C 99.121094 93.871094 99.199219 93.683594 99.199219 93.464844 C 99.199219 93.246094 99.121094 93.058594 98.964844 92.902344 C 98.808594 92.746094 98.621094 92.667969 98.398438 92.667969 C 97.972656 92.667969 97.5625 92.75 97.167969 92.910156 C 96.773438 93.074219 96.429688 93.300781 96.125 93.601562 C 95.824219 93.898438 95.59375 94.242188 95.429688 94.632812 C 95.265625 95.023438 95.1875 95.429688 95.1875 95.851562 L 95.1875 97.445312 C 95.1875 97.65625 95.144531 97.859375 95.0625 98.054688 C 94.980469 98.25 94.867188 98.421875 94.714844 98.570312 C 94.566406 98.71875 94.390625 98.835938 94.195312 98.914062 C 93.996094 98.996094 93.792969 99.035156 93.578125 99.035156 C 93.359375 99.035156 93.167969 99.113281 93.011719 99.269531 C 92.855469 99.425781 92.777344 99.613281 92.777344 99.832031 C 92.777344 100.050781 92.855469 100.238281 93.011719 100.394531 C 93.167969 100.550781 93.359375 100.628906 93.578125 100.628906 C 93.792969 100.628906 93.996094 100.667969 94.195312 100.75 C 94.390625 100.832031 94.566406 100.945312 94.714844 101.09375 C 94.867188 101.242188 94.980469 101.417969 95.0625 101.609375 C 95.144531 101.804688 95.1875 102.007812 95.1875 102.21875 L 95.1875 103.8125 C 95.1875 104.234375 95.265625 104.640625 95.429688 105.03125 C 95.59375 105.421875 95.824219 105.765625 96.125 106.0625 C 96.429688 106.363281 96.773438 106.59375 97.167969 106.753906 C 97.5625 106.914062 97.972656 106.996094 98.398438 106.996094 C 98.621094 106.996094 98.808594 106.917969 98.964844 106.761719 C 99.121094 106.609375 99.199219 106.421875 99.199219 106.199219 C 99.199219 105.980469 99.121094 105.792969 98.964844 105.636719 C 98.808594 105.480469 98.621094 105.40625 98.398438 105.40625 C 98.183594 105.40625 97.980469 105.363281 97.785156 105.28125 C 97.585938 105.203125 97.414062 105.085938 97.261719 104.9375 C 97.113281 104.789062 96.996094 104.617188 96.914062 104.421875 C 96.832031 104.226562 96.792969 104.023438 96.792969 103.8125 L 96.792969 102.21875 C 96.792969 101.261719 96.429688 100.464844 95.703125 99.832031 C 96.429688 99.199219 96.792969 98.402344 96.792969 97.445312 Z M 96.792969 95.851562 "/><g clip-rule="nonzero" clip-path="url(#89813909a5)"><path style=" stroke:none;fill-rule:nonzero;fill:#000000;fill-opacity:1;" d="M 125.699219 67.195312 L 88.761719 67.195312 C 88.539062 67.195312 88.351562 67.273438 88.195312 67.429688 C 88.035156 67.585938 87.957031 67.773438 87.957031 67.992188 L 87.957031 70.378906 L 85.550781 70.378906 C 85.328125 70.378906 85.136719 70.457031 84.980469 70.613281 C 84.824219 70.769531 84.746094 70.957031 84.746094 71.175781 L 84.746094 114.160156 C 84.746094 114.378906 84.824219 114.566406 84.980469 114.722656 C 85.136719 114.878906 85.328125 114.957031 85.550781 114.957031 L 122.488281 114.957031 C 122.710938 114.957031 122.898438 114.878906 123.054688 114.722656 C 123.214844 114.566406 123.292969 114.378906 123.292969 114.160156 L 123.292969 111.773438 L 125.699219 111.773438 C 125.921875 111.773438 126.113281 111.695312 126.269531 111.539062 C 126.425781 111.382812 126.503906 111.195312 126.503906 110.976562 L 126.503906 67.992188 C 126.503906 67.773438 126.425781 67.585938 126.269531 67.429688 C 126.113281 67.273438 125.921875 67.195312 125.699219 67.195312 Z M 88.761719 77.542969 C 88.761719 77.28125 88.789062 77.023438 88.839844 76.769531 C 88.890625 76.511719 88.964844 76.261719 89.066406 76.019531 C 89.167969 75.78125 89.292969 75.550781 89.4375 75.332031 C 89.585938 75.117188 89.75 74.914062 89.9375 74.730469 C 90.125 74.546875 90.328125 74.378906 90.546875 74.234375 C 90.765625 74.089844 90.996094 73.96875 91.242188 73.867188 C 91.484375 73.765625 91.734375 73.691406 91.992188 73.640625 C 92.253906 73.589844 92.511719 73.5625 92.777344 73.5625 L 94.382812 73.5625 C 94.605469 73.5625 94.792969 73.640625 94.949219 73.796875 C 95.109375 73.953125 95.1875 74.140625 95.1875 74.359375 C 95.1875 74.582031 95.109375 74.769531 94.949219 74.921875 C 94.792969 75.078125 94.605469 75.15625 94.382812 75.15625 L 92.777344 75.15625 C 92.457031 75.15625 92.152344 75.21875 91.855469 75.339844 C 91.5625 75.460938 91.300781 75.632812 91.074219 75.859375 C 90.851562 76.082031 90.675781 76.339844 90.554688 76.632812 C 90.429688 76.921875 90.367188 77.226562 90.367188 77.542969 L 90.367188 79.136719 C 90.367188 79.453125 90.429688 79.757812 90.554688 80.050781 C 90.675781 80.339844 90.851562 80.597656 91.074219 80.824219 C 91.300781 81.046875 91.5625 81.21875 91.855469 81.339844 C 92.152344 81.460938 92.457031 81.523438 92.777344 81.523438 L 94.382812 81.523438 C 94.605469 81.523438 94.792969 81.601562 94.949219 81.757812 C 95.109375 81.914062 95.1875 82.101562 95.1875 82.320312 C 95.1875 82.539062 95.109375 82.726562 94.949219 82.882812 C 94.792969 83.039062 94.605469 83.117188 94.382812 83.117188 L 92.777344 83.117188 C 92.511719 83.117188 92.253906 83.089844 91.992188 83.039062 C 91.734375 82.988281 91.484375 82.914062 91.242188 82.8125 C 90.996094 82.714844 90.765625 82.589844 90.546875 82.445312 C 90.328125 82.300781 90.125 82.136719 89.9375 81.949219 C 89.75 81.765625 89.585938 81.566406 89.4375 81.347656 C 89.292969 81.128906 89.167969 80.902344 89.066406 80.660156 C 88.964844 80.417969 88.890625 80.167969 88.839844 79.914062 C 88.789062 79.65625 88.761719 79.398438 88.761719 79.136719 Z M 121.6875 113.363281 L 86.351562 113.363281 L 86.351562 86.300781 L 121.6875 86.300781 Z M 100.40625 79.136719 L 99.601562 79.136719 C 99.230469 79.136719 98.871094 79.066406 98.527344 78.925781 C 98.183594 78.78125 97.878906 78.582031 97.613281 78.320312 C 97.351562 78.058594 97.148438 77.757812 97.007812 77.417969 C 96.863281 77.074219 96.792969 76.71875 96.792969 76.351562 C 96.792969 75.980469 96.863281 75.625 97.007812 75.285156 C 97.148438 74.941406 97.351562 74.640625 97.613281 74.378906 C 97.878906 74.117188 98.183594 73.917969 98.527344 73.777344 C 98.871094 73.636719 99.230469 73.5625 99.601562 73.5625 L 100.808594 73.5625 C 101.125 73.566406 101.433594 73.625 101.726562 73.746094 C 102.023438 73.871094 102.28125 74.042969 102.507812 74.265625 C 102.734375 74.488281 102.910156 74.746094 103.03125 75.039062 C 103.152344 75.332031 103.214844 75.636719 103.214844 75.953125 C 103.214844 76.171875 103.136719 76.359375 102.980469 76.515625 C 102.824219 76.671875 102.636719 76.75 102.414062 76.75 C 102.191406 76.75 102.003906 76.671875 101.84375 76.515625 C 101.6875 76.359375 101.609375 76.171875 101.609375 75.953125 C 101.609375 75.734375 101.53125 75.542969 101.375 75.390625 C 101.21875 75.234375 101.027344 75.15625 100.808594 75.15625 L 99.601562 75.15625 C 99.441406 75.15625 99.289062 75.1875 99.140625 75.246094 C 98.992188 75.308594 98.863281 75.394531 98.75 75.507812 C 98.636719 75.617188 98.550781 75.746094 98.488281 75.894531 C 98.429688 76.039062 98.398438 76.191406 98.398438 76.351562 C 98.398438 76.507812 98.429688 76.660156 98.488281 76.808594 C 98.550781 76.953125 98.636719 77.082031 98.75 77.195312 C 98.863281 77.304688 98.992188 77.394531 99.140625 77.453125 C 99.289062 77.515625 99.441406 77.542969 99.601562 77.542969 L 100.40625 77.542969 C 100.777344 77.542969 101.136719 77.613281 101.480469 77.757812 C 101.824219 77.898438 102.128906 78.097656 102.394531 78.359375 C 102.65625 78.621094 102.859375 78.921875 103.003906 79.265625 C 103.144531 79.605469 103.214844 79.960938 103.214844 80.332031 C 103.214844 80.699219 103.144531 81.054688 103.003906 81.394531 C 102.859375 81.738281 102.65625 82.039062 102.394531 82.300781 C 102.128906 82.5625 101.824219 82.761719 101.480469 82.902344 C 101.136719 83.046875 100.777344 83.117188 100.40625 83.117188 L 99.199219 83.117188 C 98.882812 83.117188 98.574219 83.054688 98.28125 82.933594 C 97.984375 82.8125 97.726562 82.636719 97.5 82.414062 C 97.273438 82.191406 97.101562 81.933594 96.976562 81.640625 C 96.855469 81.347656 96.792969 81.042969 96.792969 80.726562 C 96.792969 80.507812 96.871094 80.320312 97.027344 80.164062 C 97.183594 80.011719 97.375 79.933594 97.59375 79.933594 C 97.816406 79.933594 98.007812 80.011719 98.164062 80.164062 C 98.320312 80.320312 98.398438 80.507812 98.398438 80.726562 C 98.398438 80.949219 98.476562 81.136719 98.632812 81.292969 C 98.789062 81.445312 98.980469 81.523438 99.199219 81.523438 L 100.40625 81.523438 C 100.566406 81.523438 100.71875 81.492188 100.867188 81.433594 C 101.015625 81.371094 101.144531 81.285156 101.257812 81.175781 C 101.371094 81.0625 101.457031 80.933594 101.519531 80.789062 C 101.578125 80.640625 101.609375 80.488281 101.609375 80.332031 C 101.609375 80.171875 101.578125 80.019531 101.519531 79.875 C 101.457031 79.726562 101.371094 79.597656 101.257812 79.484375 C 101.144531 79.375 101.015625 79.289062 100.867188 79.226562 C 100.71875 79.167969 100.566406 79.136719 100.40625 79.136719 Z M 108.4375 79.136719 L 107.632812 79.136719 C 107.261719 79.136719 106.902344 79.066406 106.558594 78.925781 C 106.210938 78.78125 105.910156 78.582031 105.644531 78.320312 C 105.382812 78.058594 105.179688 77.757812 105.035156 77.417969 C 104.894531 77.074219 104.820312 76.71875 104.820312 76.351562 C 104.820312 75.980469 104.894531 75.625 105.035156 75.285156 C 105.179688 74.941406 105.382812 74.640625 105.644531 74.378906 C 105.910156 74.117188 106.210938 73.917969 106.558594 73.777344 C 106.902344 73.636719 107.261719 73.5625 107.632812 73.5625 L 108.835938 73.5625 C 109.15625 73.566406 109.464844 73.625 109.757812 73.746094 C 110.054688 73.871094 110.3125 74.042969 110.539062 74.265625 C 110.765625 74.488281 110.9375 74.746094 111.0625 75.039062 C 111.183594 75.332031 111.246094 75.636719 111.246094 75.953125 C 111.246094 76.171875 111.167969 76.359375 111.011719 76.515625 C 110.855469 76.671875 110.664062 76.75 110.441406 76.75 C 110.222656 76.75 110.03125 76.671875 109.875 76.515625 C 109.71875 76.359375 109.640625 76.171875 109.640625 75.953125 C 109.640625 75.734375 109.5625 75.542969 109.40625 75.390625 C 109.25 75.234375 109.058594 75.15625 108.835938 75.15625 L 107.632812 75.15625 C 107.472656 75.15625 107.320312 75.1875 107.171875 75.246094 C 107.023438 75.308594 106.894531 75.394531 106.78125 75.507812 C 106.667969 75.617188 106.582031 75.746094 106.519531 75.894531 C 106.457031 76.039062 106.429688 76.191406 106.429688 76.351562 C 106.429688 76.507812 106.457031 76.660156 106.519531 76.808594 C 106.582031 76.953125 106.667969 77.082031 106.78125 77.195312 C 106.894531 77.304688 107.023438 77.394531 107.171875 77.453125 C 107.320312 77.515625 107.472656 77.542969 107.632812 77.542969 L 108.4375 77.542969 C 108.808594 77.542969 109.167969 77.613281 109.511719 77.757812 C 109.855469 77.898438 110.160156 78.097656 110.421875 78.359375 C 110.6875 78.621094 110.890625 78.921875 111.03125 79.265625 C 111.175781 79.605469 111.246094 79.960938 111.246094 80.332031 C 111.246094 80.699219 111.175781 81.054688 111.03125 81.394531 C 110.890625 81.738281 110.6875 82.039062 110.421875 82.300781 C 110.160156 82.5625 109.855469 82.761719 109.511719 82.902344 C 109.167969 83.046875 108.808594 83.117188 108.4375 83.117188 L 107.230469 83.117188 C 106.910156 83.117188 106.605469 83.054688 106.308594 82.933594 C 106.015625 82.8125 105.753906 82.636719 105.53125 82.414062 C 105.304688 82.191406 105.128906 81.933594 105.007812 81.640625 C 104.886719 81.347656 104.824219 81.042969 104.820312 80.726562 C 104.820312 80.507812 104.902344 80.320312 105.058594 80.164062 C 105.214844 80.011719 105.402344 79.933594 105.625 79.933594 C 105.847656 79.933594 106.035156 80.011719 106.191406 80.164062 C 106.351562 80.320312 106.429688 80.507812 106.429688 80.726562 C 106.429688 80.949219 106.507812 81.136719 106.664062 81.292969 C 106.820312 81.445312 107.007812 81.523438 107.230469 81.523438 L 108.4375 81.523438 C 108.59375 81.523438 108.75 81.492188 108.898438 81.433594 C 109.042969 81.371094 109.175781 81.285156 109.289062 81.175781 C 109.402344 81.0625 109.488281 80.933594 109.546875 80.789062 C 109.609375 80.640625 109.640625 80.488281 109.640625 80.332031 C 109.640625 80.171875 109.609375 80.019531 109.546875 79.875 C 109.488281 79.726562 109.402344 79.597656 109.289062 79.484375 C 109.175781 79.375 109.042969 79.289062 108.898438 79.226562 C 108.75 79.167969 108.59375 79.136719 108.4375 79.136719 Z M 115.261719 77.542969 L 115.261719 73.09375 L 120.554688 78.339844 L 116.066406 78.339844 C 115.84375 78.339844 115.652344 78.261719 115.496094 78.105469 C 115.339844 77.953125 115.261719 77.765625 115.261719 77.542969 Z M 124.898438 110.179688 L 123.292969 110.179688 L 123.292969 79.136719 C 123.289062 78.917969 123.210938 78.730469 123.058594 78.570312 L 115.027344 70.609375 C 114.871094 70.457031 114.679688 70.382812 114.457031 70.378906 L 89.566406 70.378906 L 89.566406 68.789062 L 124.898438 68.789062 Z M 124.898438 110.179688 "/></g><g clip-rule="nonzero" clip-path="url(#1988ecb143)"><path style=" stroke:none;fill-rule:evenodd;fill:#00678c;fill-opacity:1;" d="M 196.691406 107.199219 L 199.363281 107.199219 L 199.363281 96.652344 L 203.535156 105.847656 C 204.007812 106.953125 204.6875 107.363281 206.003906 107.363281 C 207.316406 107.363281 207.953125 106.953125 208.441406 105.847656 L 212.59375 96.652344 L 212.59375 107.199219 L 215.289062 107.199219 L 215.289062 96.652344 C 215.289062 95.628906 214.875 95.136719 214.011719 94.871094 C 211.976562 94.257812 210.621094 94.789062 210.003906 96.160156 L 205.914062 105.253906 L 201.96875 96.160156 C 201.375 94.789062 199.996094 94.257812 197.941406 94.871094 C 197.097656 95.136719 196.6875 95.628906 196.6875 96.652344 L 196.6875 107.199219 Z M 217.511719 98.621094 L 220.203125 98.621094 L 220.203125 104.414062 C 220.183594 104.742188 220.304688 105.480469 221.769531 105.5 C 222.53125 105.519531 227.566406 105.5 227.605469 105.5 L 227.605469 98.578125 L 230.296875 98.578125 L 230.296875 108.058594 C 230.296875 110.394531 227.398438 110.902344 226.042969 110.925781 L 217.578125 110.925781 L 217.578125 109.144531 L 226.066406 109.144531 C 227.792969 108.960938 227.585938 108.101562 227.585938 107.8125 L 227.585938 107.117188 L 221.894531 107.117188 C 219.242188 107.097656 217.535156 105.929688 217.515625 104.597656 L 217.515625 98.617188 Z M 275.261719 91.902344 C 273.617188 91.863281 272.34375 92.027344 271.273438 92.476562 C 270.964844 92.601562 270.472656 92.601562 270.433594 92.988281 C 270.597656 93.152344 270.617188 93.417969 270.761719 93.644531 C 271.007812 94.054688 271.4375 94.605469 271.828125 94.894531 C 272.261719 95.222656 272.691406 95.546875 273.144531 95.835938 C 273.945312 96.324219 274.851562 96.613281 275.632812 97.105469 C 276.082031 97.390625 276.535156 97.757812 276.988281 98.066406 C 277.21875 98.230469 277.359375 98.496094 277.644531 98.597656 L 277.644531 98.539062 C 277.5 98.355469 277.460938 98.085938 277.316406 97.882812 C 277.109375 97.679688 276.90625 97.492188 276.699219 97.289062 C 276.105469 96.492188 275.363281 95.792969 274.5625 95.222656 C 273.90625 94.769531 272.464844 94.15625 272.199219 93.398438 L 272.160156 93.359375 C 272.609375 93.316406 273.144531 93.152344 273.578125 93.03125 C 274.277344 92.847656 274.914062 92.886719 275.632812 92.703125 C 275.960938 92.621094 276.289062 92.519531 276.617188 92.414062 L 276.617188 92.230469 C 276.25 91.863281 275.980469 91.371094 275.589844 91.023438 C 274.542969 90.125 273.390625 89.242188 272.199219 88.503906 C 271.5625 88.097656 270.738281 87.828125 270.0625 87.480469 C 269.816406 87.359375 269.402344 87.296875 269.261719 87.09375 C 268.890625 86.644531 268.683594 86.050781 268.417969 85.515625 C 267.820312 84.390625 267.246094 83.140625 266.734375 81.953125 C 266.363281 81.15625 266.136719 80.355469 265.683594 79.621094 C 263.566406 76.136719 261.265625 74.03125 257.730469 71.960938 C 256.96875 71.53125 256.066406 71.347656 255.105469 71.121094 L 253.5625 71.039062 C 253.234375 70.894531 252.90625 70.507812 252.617188 70.320312 C 251.445312 69.585938 248.425781 67.988281 247.5625 70.097656 C 247.007812 71.429688 248.382812 72.738281 248.851562 73.414062 C 249.199219 73.886719 249.652344 74.417969 249.898438 74.949219 C 250.039062 75.296875 250.085938 75.667969 250.226562 76.035156 C 250.558594 76.9375 250.867188 77.941406 251.296875 78.78125 C 251.527344 79.210938 251.769531 79.660156 252.058594 80.050781 C 252.222656 80.273438 252.507812 80.378906 252.570312 80.746094 C 252.28125 81.15625 252.261719 81.769531 252.097656 82.28125 C 251.359375 84.59375 251.644531 87.460938 252.695312 89.160156 C 253.023438 89.671875 253.800781 90.800781 254.851562 90.367188 C 255.777344 90 255.570312 88.832031 255.839844 87.808594 C 255.902344 87.5625 255.859375 87.398438 255.980469 87.234375 L 255.980469 87.277344 L 256.824219 88.976562 C 257.460938 89.980469 258.574219 91.023438 259.496094 91.722656 C 259.988281 92.089844 260.378906 92.722656 260.996094 92.949219 L 260.996094 92.886719 L 260.957031 92.886719 C 260.832031 92.703125 260.648438 92.621094 260.484375 92.476562 C 260.113281 92.109375 259.703125 91.660156 259.414062 91.25 C 258.550781 90.101562 257.792969 88.832031 257.113281 87.523438 C 256.785156 86.886719 256.496094 86.191406 256.230469 85.558594 C 256.105469 85.3125 256.105469 84.941406 255.898438 84.820312 C 255.589844 85.269531 255.140625 85.660156 254.914062 86.210938 C 254.523438 87.09375 254.480469 88.179688 254.339844 89.304688 C 254.253906 89.324219 254.292969 89.304688 254.253906 89.347656 C 253.597656 89.183594 253.371094 88.507812 253.125 87.933594 C 252.507812 86.480469 252.40625 84.144531 252.941406 82.464844 C 253.082031 82.035156 253.699219 80.683594 253.453125 80.273438 C 253.332031 79.886719 252.921875 79.660156 252.695312 79.355469 C 252.425781 78.964844 252.140625 78.472656 251.953125 78.042969 C 251.460938 76.894531 251.214844 75.628906 250.679688 74.480469 C 250.433594 73.949219 250 73.394531 249.652344 72.902344 C 249.261719 72.351562 248.832031 71.960938 248.523438 71.308594 C 248.417969 71.082031 248.277344 70.714844 248.441406 70.46875 C 248.480469 70.304688 248.5625 70.242188 248.726562 70.199219 C 248.996094 69.976562 249.753906 70.261719 250.023438 70.382812 C 250.78125 70.691406 251.417969 70.976562 252.054688 71.40625 C 252.34375 71.613281 252.652344 72 253.023438 72.105469 L 253.457031 72.105469 C 254.113281 72.246094 254.851562 72.144531 255.46875 72.328125 C 256.558594 72.679688 257.542969 73.191406 258.429688 73.742188 C 261.121094 75.441406 263.339844 77.859375 264.839844 80.746094 C 265.085938 81.21875 265.1875 81.648438 265.414062 82.136719 C 265.847656 83.140625 266.382812 84.164062 266.8125 85.148438 C 267.246094 86.113281 267.65625 87.09375 268.273438 87.894531 C 268.582031 88.324219 269.8125 88.546875 270.367188 88.773438 C 270.78125 88.957031 271.417969 89.121094 271.785156 89.347656 C 272.484375 89.777344 273.183594 90.269531 273.839844 90.738281 C 274.171875 90.984375 275.199219 91.496094 275.257812 91.90625 Z M 254.300781 74.109375 C 254.015625 74.109375 253.738281 74.140625 253.460938 74.210938 L 253.460938 74.253906 L 253.5 74.253906 C 253.664062 74.582031 253.953125 74.808594 254.160156 75.09375 L 254.632812 76.078125 L 254.671875 76.035156 C 254.960938 75.832031 255.105469 75.503906 255.105469 75.011719 C 254.980469 74.867188 254.960938 74.726562 254.859375 74.582031 C 254.734375 74.378906 254.46875 74.273438 254.300781 74.109375 Z M 254.300781 74.109375 "/></g><path style=" stroke:none;fill-rule:evenodd;fill:#ce8b2c;fill-opacity:1;" d="M 232.351562 107.199219 L 240.078125 107.199219 C 240.980469 107.199219 241.847656 107.015625 242.542969 106.6875 C 243.714844 106.15625 244.269531 105.4375 244.269531 104.496094 L 244.269531 102.53125 C 244.269531 101.773438 243.632812 101.054688 242.359375 100.566406 C 241.703125 100.320312 240.878906 100.175781 240.078125 100.175781 L 236.832031 100.175781 C 235.742188 100.175781 235.226562 99.847656 235.082031 99.132812 C 235.0625 99.050781 235.0625 98.96875 235.0625 98.886719 L 235.0625 97.679688 C 235.0625 97.617188 235.0625 97.535156 235.082031 97.453125 C 235.226562 96.902344 235.515625 96.757812 236.464844 96.65625 L 244.378906 96.65625 L 244.378906 94.875 L 236.855469 94.875 C 235.765625 94.875 235.191406 94.933594 234.675781 95.097656 C 233.09375 95.589844 232.394531 96.367188 232.394531 97.738281 L 232.394531 99.296875 C 232.394531 100.503906 233.753906 101.527344 236.054688 101.773438 C 236.300781 101.792969 236.566406 101.792969 236.835938 101.792969 L 239.609375 101.792969 C 239.710938 101.792969 239.816406 101.792969 239.898438 101.816406 C 240.738281 101.898438 241.109375 102.039062 241.355469 102.347656 C 241.519531 102.511719 241.5625 102.652344 241.5625 102.839844 L 241.5625 104.394531 C 241.5625 104.578125 241.4375 104.824219 241.191406 105.027344 C 240.945312 105.234375 240.554688 105.375 240.039062 105.398438 C 239.9375 105.398438 239.875 105.417969 239.773438 105.417969 L 232.351562 105.417969 Z M 261 104.109375 C 261 105.929688 262.382812 106.953125 265.132812 107.160156 C 265.398438 107.179688 265.644531 107.199219 265.914062 107.199219 L 272.902344 107.199219 L 272.902344 105.417969 L 265.851562 105.417969 C 264.289062 105.417969 263.691406 105.027344 263.691406 104.085938 L 263.691406 94.875 L 260.992188 94.875 L 260.992188 104.109375 Z M 245.976562 104.1875 L 245.976562 97.84375 C 245.976562 96.222656 247.125 95.242188 249.367188 94.933594 C 249.613281 94.914062 249.859375 94.894531 250.085938 94.894531 L 255.183594 94.894531 C 255.449219 94.894531 255.675781 94.914062 255.945312 94.933594 C 258.183594 95.242188 259.3125 96.222656 259.3125 97.84375 L 259.3125 104.1875 C 259.3125 105.5 258.839844 106.195312 257.730469 106.667969 L 260.363281 109.042969 L 257.257812 109.042969 L 255.121094 107.117188 L 252.960938 107.238281 L 250.085938 107.238281 C 249.554688 107.238281 249.035156 107.167969 248.523438 107.035156 C 246.820312 106.5625 245.976562 105.664062 245.976562 104.1875 Z M 248.875 104.046875 C 248.875 104.128906 248.917969 104.210938 248.9375 104.3125 C 249.078125 105.050781 249.777344 105.460938 250.847656 105.460938 L 253.273438 105.460938 L 251.054688 103.453125 L 254.15625 103.453125 L 256.109375 105.214844 C 256.480469 105.007812 256.703125 104.722656 256.785156 104.351562 C 256.808594 104.269531 256.808594 104.167969 256.808594 104.085938 L 256.808594 98.003906 C 256.808594 97.921875 256.808594 97.84375 256.785156 97.757812 C 256.644531 97.0625 255.945312 96.675781 254.894531 96.675781 L 250.847656 96.675781 C 249.65625 96.675781 248.875 97.1875 248.875 98.003906 Z M 248.875 104.046875 "/><g clip-rule="nonzero" clip-path="url(#f16d050e8e)"><path style=" stroke:none;fill-rule:nonzero;fill:#00aeef;fill-opacity:1;" d="M 307.507812 76.488281 C 307.507812 74.941406 307.507812 73.476562 307.503906 72.011719 C 307.503906 71.566406 307.457031 71.117188 307.484375 70.675781 C 307.550781 69.460938 308.234375 68.640625 309.242188 68.066406 C 310.742188 67.214844 312.398438 66.863281 314.082031 66.765625 C 316.105469 66.644531 318.144531 66.59375 320.171875 66.664062 C 322.242188 66.738281 324.28125 67.117188 326.125 68.160156 C 327.589844 68.992188 328.652344 70.136719 328.8125 71.914062 C 328.839844 72.214844 328.820312 72.515625 328.820312 72.820312 C 328.820312 75.816406 328.847656 78.8125 328.800781 81.808594 C 328.785156 82.707031 328.675781 83.636719 328.394531 84.484375 C 327.878906 86.054688 326.695312 87.046875 325.136719 87.515625 C 324.375 87.75 323.554688 87.902344 322.757812 87.914062 C 319.375 87.957031 315.992188 87.929688 312.605469 87.933594 C 311.617188 87.933594 310.640625 88.019531 309.707031 88.378906 C 307.800781 89.113281 306.753906 90.570312 306.304688 92.5 C 306.164062 93.097656 306.105469 93.726562 306.09375 94.34375 C 306.0625 95.859375 306.082031 97.375 306.082031 98.886719 L 306.082031 99.375 C 306.019531 99.425781 305.996094 99.464844 305.972656 99.464844 C 304.5 99.453125 302.996094 99.625 301.558594 99.386719 C 299.359375 99.023438 298.074219 97.417969 297.246094 95.445312 C 296.214844 93 296.058594 90.410156 296.125 87.796875 C 296.164062 86.199219 296.339844 84.613281 296.847656 83.089844 C 297.71875 80.496094 299.269531 78.585938 302.117188 78.074219 C 302.53125 78 302.96875 78.023438 303.398438 78.023438 C 308.195312 78.019531 312.992188 78.019531 317.789062 78.019531 C 317.898438 78.019531 318.007812 78.007812 318.199219 77.996094 C 318.199219 77.570312 318.210938 77.144531 318.1875 76.722656 C 318.183594 76.644531 318.050781 76.535156 317.957031 76.503906 C 317.84375 76.464844 317.707031 76.488281 317.582031 76.488281 C 314.433594 76.488281 311.289062 76.488281 308.144531 76.488281 Z M 314.011719 71.890625 C 314.023438 70.882812 313.164062 70 312.144531 69.96875 C 311.125 69.941406 310.214844 70.828125 310.199219 71.859375 C 310.183594 72.878906 311.066406 73.789062 312.09375 73.8125 C 313.097656 73.832031 314 72.929688 314.011719 71.890625 Z M 314.011719 71.890625 "/></g><g clip-rule="nonzero" clip-path="url(#b0c41f2139)"><path style=" stroke:none;fill-rule:nonzero;fill:#00aeef;fill-opacity:1;" d="M 318.152344 99.21875 L 318.152344 100.675781 C 318.347656 100.6875 318.527344 100.707031 318.710938 100.707031 C 321.90625 100.707031 325.097656 100.714844 328.289062 100.699219 C 328.699219 100.695312 328.835938 100.792969 328.832031 101.226562 C 328.824219 102.914062 328.875 104.605469 328.871094 106.292969 C 328.867188 107.644531 328.152344 108.578125 327.011719 109.191406 C 325.53125 109.992188 323.910156 110.351562 322.253906 110.441406 C 320.230469 110.546875 318.191406 110.621094 316.167969 110.542969 C 314.148438 110.464844 312.148438 110.109375 310.339844 109.113281 C 308.546875 108.128906 307.449219 106.730469 307.5 104.527344 C 307.570312 101.453125 307.511719 98.375 307.519531 95.296875 C 307.523438 94.109375 307.671875 92.949219 308.316406 91.902344 C 309.148438 90.554688 310.382812 89.808594 311.882812 89.484375 C 312.519531 89.347656 313.167969 89.277344 313.820312 89.273438 C 317.121094 89.253906 320.425781 89.292969 323.730469 89.246094 C 324.671875 89.234375 325.640625 89.101562 326.535156 88.832031 C 328.261719 88.308594 329.316406 87.023438 329.84375 85.339844 C 330.085938 84.578125 330.195312 83.75 330.226562 82.949219 C 330.28125 81.402344 330.242188 79.855469 330.242188 78.308594 L 330.242188 77.820312 C 330.304688 77.769531 330.328125 77.734375 330.351562 77.734375 C 331.792969 77.742188 333.257812 77.597656 334.671875 77.800781 C 336.921875 78.121094 338.203125 79.734375 339.0625 81.707031 C 339.734375 83.242188 340.070312 84.847656 340.035156 86.539062 C 340.003906 88.082031 340.082031 89.632812 340.015625 91.175781 C 339.921875 93.464844 339.25 95.570312 337.679688 97.292969 C 336.503906 98.582031 335.011719 99.199219 333.265625 99.195312 C 328.308594 99.191406 323.351562 99.1875 318.398438 99.1875 C 318.335938 99.1875 318.273438 99.203125 318.152344 99.21875 Z M 324.238281 107.230469 C 325.269531 107.226562 326.148438 106.328125 326.125 105.292969 C 326.105469 104.265625 325.246094 103.402344 324.238281 103.398438 C 323.21875 103.394531 322.320312 104.296875 322.320312 105.316406 C 322.320312 106.347656 323.207031 107.234375 324.238281 107.230469 Z M 324.238281 107.230469 "/></g><g style="fill:#303596;fill-opacity:1;"><g transform="translate(28.507323, 31.170781)"><path style="stroke:none" d="M 5 -6.265625 L 5 -2.171875 C 5 -1.453125 4.804688 -0.890625 4.421875 -0.484375 C 4.046875 -0.078125 3.484375 0.125 2.734375 0.125 C 1.992188 0.125 1.429688 -0.078125 1.046875 -0.484375 C 0.671875 -0.890625 0.484375 -1.453125 0.484375 -2.171875 L 0.484375 -6.265625 L 1.671875 -6.265625 L 1.671875 -2.171875 C 1.671875 -1.796875 1.753906 -1.503906 1.921875 -1.296875 C 2.097656 -1.085938 2.367188 -0.984375 2.734375 -0.984375 C 3.109375 -0.984375 3.378906 -1.085938 3.546875 -1.296875 C 3.722656 -1.503906 3.8125 -1.796875 3.8125 -2.171875 L 3.8125 -6.265625 Z M 5 -6.265625 "/></g></g><g style="fill:#303596;fill-opacity:1;"><g transform="translate(34.883333, 31.170781)"><path style="stroke:none" d="M 3.8125 -4.34375 C 3.8125 -4.601562 3.710938 -4.820312 3.515625 -5 C 3.328125 -5.1875 3.054688 -5.28125 2.703125 -5.28125 C 2.398438 -5.28125 2.160156 -5.21875 1.984375 -5.09375 C 1.816406 -4.976562 1.734375 -4.816406 1.734375 -4.609375 C 1.734375 -4.492188 1.753906 -4.394531 1.796875 -4.3125 C 1.835938 -4.226562 1.910156 -4.148438 2.015625 -4.078125 C 2.117188 -4.003906 2.253906 -3.941406 2.421875 -3.890625 C 2.597656 -3.835938 2.816406 -3.789062 3.078125 -3.75 C 3.734375 -3.625 4.234375 -3.421875 4.578125 -3.140625 C 4.929688 -2.859375 5.109375 -2.441406 5.109375 -1.890625 L 5.109375 -1.796875 C 5.109375 -1.503906 5.054688 -1.238281 4.953125 -1 C 4.847656 -0.757812 4.695312 -0.554688 4.5 -0.390625 C 4.300781 -0.222656 4.0625 -0.09375 3.78125 0 C 3.5 0.0820312 3.179688 0.125 2.828125 0.125 C 2.421875 0.125 2.054688 0.0664062 1.734375 -0.046875 C 1.421875 -0.160156 1.160156 -0.320312 0.953125 -0.53125 C 0.742188 -0.738281 0.585938 -0.976562 0.484375 -1.25 C 0.378906 -1.53125 0.328125 -1.835938 0.328125 -2.171875 L 0.328125 -2.4375 L 1.5 -2.4375 L 1.5 -2.21875 C 1.5 -1.84375 1.609375 -1.539062 1.828125 -1.3125 C 2.046875 -1.09375 2.382812 -0.984375 2.84375 -0.984375 C 3.207031 -0.984375 3.472656 -1.0625 3.640625 -1.21875 C 3.816406 -1.375 3.90625 -1.554688 3.90625 -1.765625 C 3.90625 -1.867188 3.882812 -1.96875 3.84375 -2.0625 C 3.8125 -2.15625 3.75 -2.238281 3.65625 -2.3125 C 3.570312 -2.382812 3.453125 -2.453125 3.296875 -2.515625 C 3.140625 -2.578125 2.941406 -2.628906 2.703125 -2.671875 C 2.390625 -2.722656 2.097656 -2.789062 1.828125 -2.875 C 1.566406 -2.96875 1.335938 -3.082031 1.140625 -3.21875 C 0.953125 -3.363281 0.800781 -3.539062 0.6875 -3.75 C 0.582031 -3.96875 0.53125 -4.234375 0.53125 -4.546875 L 0.53125 -4.609375 C 0.53125 -4.859375 0.582031 -5.09375 0.6875 -5.3125 C 0.789062 -5.53125 0.9375 -5.71875 1.125 -5.875 C 1.320312 -6.039062 1.550781 -6.164062 1.8125 -6.25 C 2.082031 -6.34375 2.378906 -6.390625 2.703125 -6.390625 C 3.078125 -6.390625 3.40625 -6.335938 3.6875 -6.234375 C 3.976562 -6.128906 4.21875 -5.988281 4.40625 -5.8125 C 4.601562 -5.632812 4.75 -5.425781 4.84375 -5.1875 C 4.945312 -4.957031 5 -4.710938 5 -4.453125 L 5 -4.140625 L 3.8125 -4.140625 Z M 3.8125 -4.34375 "/></g></g><g style="fill:#303596;fill-opacity:1;"><g transform="translate(41.259343, 31.170781)"><path style="stroke:none" d="M 3.8125 -1.34375 L 1.671875 -1.34375 L 1.375 0 L 0.140625 0 L 1.625 -6.265625 L 3.84375 -6.265625 L 5.34375 0 L 4.109375 0 Z M 1.921875 -2.46875 L 3.546875 -2.46875 L 2.8125 -5.671875 L 2.65625 -5.671875 Z M 1.921875 -2.46875 "/></g></g><g style="fill:#303596;fill-opacity:1;"><g transform="translate(47.635353, 31.170781)"><path style="stroke:none" d="M 4.859375 0 L 3.6875 0 L 3.6875 -1.875 C 3.6875 -2.019531 3.644531 -2.132812 3.5625 -2.21875 C 3.488281 -2.3125 3.367188 -2.359375 3.203125 -2.359375 L 1.828125 -2.359375 L 1.828125 0 L 0.65625 0 L 0.65625 -6.265625 L 3.046875 -6.265625 C 3.367188 -6.265625 3.648438 -6.21875 3.890625 -6.125 C 4.140625 -6.039062 4.347656 -5.921875 4.515625 -5.765625 C 4.679688 -5.609375 4.804688 -5.421875 4.890625 -5.203125 C 4.972656 -4.992188 5.015625 -4.773438 5.015625 -4.546875 L 5.015625 -4.328125 C 5.015625 -4.066406 4.945312 -3.820312 4.8125 -3.59375 C 4.675781 -3.375 4.46875 -3.207031 4.1875 -3.09375 L 4.1875 -2.921875 C 4.394531 -2.898438 4.554688 -2.820312 4.671875 -2.6875 C 4.796875 -2.550781 4.859375 -2.378906 4.859375 -2.171875 Z M 1.828125 -3.484375 L 2.96875 -3.484375 C 3.25 -3.484375 3.460938 -3.550781 3.609375 -3.6875 C 3.765625 -3.820312 3.84375 -4.015625 3.84375 -4.265625 L 3.84375 -4.375 C 3.84375 -4.582031 3.765625 -4.757812 3.609375 -4.90625 C 3.460938 -5.0625 3.25 -5.140625 2.96875 -5.140625 L 1.828125 -5.140625 Z M 1.828125 -3.484375 "/></g></g><g style="fill:#303596;fill-opacity:1;"><g transform="translate(54.011363, 31.170781)"><path style="stroke:none" d="M 0.734375 -6.265625 L 4.6875 -6.265625 L 4.6875 -5.140625 L 1.921875 -5.140625 L 1.921875 -3.703125 L 4.578125 -3.703125 L 4.578125 -2.578125 L 1.921875 -2.578125 L 1.921875 -1.125 L 4.796875 -1.125 L 4.796875 0 L 0.734375 0 Z M 0.734375 -6.265625 "/></g></g><g style="fill:#303596;fill-opacity:1;"><g transform="translate(60.387372, 31.170781)"><path style="stroke:none" d="M 0.203125 -6.265625 L 2.28125 -6.265625 L 2.625 -1.5625 L 2.625 -0.640625 L 2.84375 -0.640625 L 2.84375 -1.5625 L 3.203125 -6.265625 L 5.28125 -6.265625 L 5.28125 0 L 4.203125 0 L 4.203125 -4.1875 L 4.3125 -5.625 L 4.09375 -5.625 L 3.640625 0 L 1.859375 0 L 1.375 -5.625 L 1.15625 -5.625 L 1.265625 -4.1875 L 1.265625 0 L 0.203125 0 Z M 0.203125 -6.265625 "/></g></g><g style="fill:#303596;fill-opacity:1;"><g transform="translate(66.763382, 31.170781)"><path style="stroke:none" d="M 0.4375 -3.828125 C 0.4375 -4.640625 0.640625 -5.269531 1.046875 -5.71875 C 1.453125 -6.164062 2.015625 -6.390625 2.734375 -6.390625 C 3.460938 -6.390625 4.03125 -6.164062 4.4375 -5.71875 C 4.84375 -5.269531 5.046875 -4.640625 5.046875 -3.828125 L 5.046875 -2.4375 C 5.046875 -1.601562 4.84375 -0.96875 4.4375 -0.53125 C 4.03125 -0.09375 3.460938 0.125 2.734375 0.125 C 2.015625 0.125 1.453125 -0.09375 1.046875 -0.53125 C 0.640625 -0.96875 0.4375 -1.601562 0.4375 -2.4375 Z M 2.734375 -0.953125 C 2.953125 -0.953125 3.128906 -0.984375 3.265625 -1.046875 C 3.410156 -1.117188 3.53125 -1.21875 3.625 -1.34375 C 3.71875 -1.46875 3.78125 -1.613281 3.8125 -1.78125 C 3.851562 -1.957031 3.875 -2.148438 3.875 -2.359375 L 3.875 -3.90625 C 3.875 -4.101562 3.851562 -4.285156 3.8125 -4.453125 C 3.769531 -4.628906 3.703125 -4.78125 3.609375 -4.90625 C 3.515625 -5.03125 3.394531 -5.128906 3.25 -5.203125 C 3.113281 -5.273438 2.941406 -5.3125 2.734375 -5.3125 C 2.535156 -5.3125 2.363281 -5.273438 2.21875 -5.203125 C 2.070312 -5.128906 1.953125 -5.03125 1.859375 -4.90625 C 1.773438 -4.78125 1.710938 -4.628906 1.671875 -4.453125 C 1.628906 -4.285156 1.609375 -4.101562 1.609375 -3.90625 L 1.609375 -2.359375 C 1.609375 -2.148438 1.625 -1.957031 1.65625 -1.78125 C 1.695312 -1.613281 1.757812 -1.46875 1.84375 -1.34375 C 1.9375 -1.21875 2.054688 -1.117188 2.203125 -1.046875 C 2.347656 -0.984375 2.523438 -0.953125 2.734375 -0.953125 Z M 2.734375 -0.953125 "/></g></g><g style="fill:#303596;fill-opacity:1;"><g transform="translate(73.139392, 31.170781)"><path style="stroke:none" d="M 3.8125 -4.34375 C 3.8125 -4.601562 3.710938 -4.820312 3.515625 -5 C 3.328125 -5.1875 3.054688 -5.28125 2.703125 -5.28125 C 2.398438 -5.28125 2.160156 -5.21875 1.984375 -5.09375 C 1.816406 -4.976562 1.734375 -4.816406 1.734375 -4.609375 C 1.734375 -4.492188 1.753906 -4.394531 1.796875 -4.3125 C 1.835938 -4.226562 1.910156 -4.148438 2.015625 -4.078125 C 2.117188 -4.003906 2.253906 -3.941406 2.421875 -3.890625 C 2.597656 -3.835938 2.816406 -3.789062 3.078125 -3.75 C 3.734375 -3.625 4.234375 -3.421875 4.578125 -3.140625 C 4.929688 -2.859375 5.109375 -2.441406 5.109375 -1.890625 L 5.109375 -1.796875 C 5.109375 -1.503906 5.054688 -1.238281 4.953125 -1 C 4.847656 -0.757812 4.695312 -0.554688 4.5 -0.390625 C 4.300781 -0.222656 4.0625 -0.09375 3.78125 0 C 3.5 0.0820312 3.179688 0.125 2.828125 0.125 C 2.421875 0.125 2.054688 0.0664062 1.734375 -0.046875 C 1.421875 -0.160156 1.160156 -0.320312 0.953125 -0.53125 C 0.742188 -0.738281 0.585938 -0.976562 0.484375 -1.25 C 0.378906 -1.53125 0.328125 -1.835938 0.328125 -2.171875 L 0.328125 -2.4375 L 1.5 -2.4375 L 1.5 -2.21875 C 1.5 -1.84375 1.609375 -1.539062 1.828125 -1.3125 C 2.046875 -1.09375 2.382812 -0.984375 2.84375 -0.984375 C 3.207031 -0.984375 3.472656 -1.0625 3.640625 -1.21875 C 3.816406 -1.375 3.90625 -1.554688 3.90625 -1.765625 C 3.90625 -1.867188 3.882812 -1.96875 3.84375 -2.0625 C 3.8125 -2.15625 3.75 -2.238281 3.65625 -2.3125 C 3.570312 -2.382812 3.453125 -2.453125 3.296875 -2.515625 C 3.140625 -2.578125 2.941406 -2.628906 2.703125 -2.671875 C 2.390625 -2.722656 2.097656 -2.789062 1.828125 -2.875 C 1.566406 -2.96875 1.335938 -3.082031 1.140625 -3.21875 C 0.953125 -3.363281 0.800781 -3.539062 0.6875 -3.75 C 0.582031 -3.96875 0.53125 -4.234375 0.53125 -4.546875 L 0.53125 -4.609375 C 0.53125 -4.859375 0.582031 -5.09375 0.6875 -5.3125 C 0.789062 -5.53125 0.9375 -5.71875 1.125 -5.875 C 1.320312 -6.039062 1.550781 -6.164062 1.8125 -6.25 C 2.082031 -6.34375 2.378906 -6.390625 2.703125 -6.390625 C 3.078125 -6.390625 3.40625 -6.335938 3.6875 -6.234375 C 3.976562 -6.128906 4.21875 -5.988281 4.40625 -5.8125 C 4.601562 -5.632812 4.75 -5.425781 4.84375 -5.1875 C 4.945312 -4.957031 5 -4.710938 5 -4.453125 L 5 -4.140625 L 3.8125 -4.140625 Z M 3.8125 -4.34375 "/></g></g><g style="fill:#303596;fill-opacity:1;"><g transform="translate(79.515402, 31.170781)"><path style="stroke:none" d=""/></g></g><g style="fill:#303596;fill-opacity:1;"><g transform="translate(85.891412, 31.170781)"><path style="stroke:none" d="M 0.734375 -6.265625 L 4.6875 -6.265625 L 4.6875 -5.140625 L 1.921875 -5.140625 L 1.921875 -3.703125 L 4.578125 -3.703125 L 4.578125 -2.578125 L 1.921875 -2.578125 L 1.921875 -1.125 L 4.796875 -1.125 L 4.796875 0 L 0.734375 0 Z M 0.734375 -6.265625 "/></g></g><g style="fill:#303596;fill-opacity:1;"><g transform="translate(92.267421, 31.170781)"><path style="stroke:none" d="M 3.8125 -4.34375 C 3.8125 -4.601562 3.710938 -4.820312 3.515625 -5 C 3.328125 -5.1875 3.054688 -5.28125 2.703125 -5.28125 C 2.398438 -5.28125 2.160156 -5.21875 1.984375 -5.09375 C 1.816406 -4.976562 1.734375 -4.816406 1.734375 -4.609375 C 1.734375 -4.492188 1.753906 -4.394531 1.796875 -4.3125 C 1.835938 -4.226562 1.910156 -4.148438 2.015625 -4.078125 C 2.117188 -4.003906 2.253906 -3.941406 2.421875 -3.890625 C 2.597656 -3.835938 2.816406 -3.789062 3.078125 -3.75 C 3.734375 -3.625 4.234375 -3.421875 4.578125 -3.140625 C 4.929688 -2.859375 5.109375 -2.441406 5.109375 -1.890625 L 5.109375 -1.796875 C 5.109375 -1.503906 5.054688 -1.238281 4.953125 -1 C 4.847656 -0.757812 4.695312 -0.554688 4.5 -0.390625 C 4.300781 -0.222656 4.0625 -0.09375 3.78125 0 C 3.5 0.0820312 3.179688 0.125 2.828125 0.125 C 2.421875 0.125 2.054688 0.0664062 1.734375 -0.046875 C 1.421875 -0.160156 1.160156 -0.320312 0.953125 -0.53125 C 0.742188 -0.738281 0.585938 -0.976562 0.484375 -1.25 C 0.378906 -1.53125 0.328125 -1.835938 0.328125 -2.171875 L 0.328125 -2.4375 L 1.5 -2.4375 L 1.5 -2.21875 C 1.5 -1.84375 1.609375 -1.539062 1.828125 -1.3125 C 2.046875 -1.09375 2.382812 -0.984375 2.84375 -0.984375 C 3.207031 -0.984375 3.472656 -1.0625 3.640625 -1.21875 C 3.816406 -1.375 3.90625 -1.554688 3.90625 -1.765625 C 3.90625 -1.867188 3.882812 -1.96875 3.84375 -2.0625 C 3.8125 -2.15625 3.75 -2.238281 3.65625 -2.3125 C 3.570312 -2.382812 3.453125 -2.453125 3.296875 -2.515625 C 3.140625 -2.578125 2.941406 -2.628906 2.703125 -2.671875 C 2.390625 -2.722656 2.097656 -2.789062 1.828125 -2.875 C 1.566406 -2.96875 1.335938 -3.082031 1.140625 -3.21875 C 0.953125 -3.363281 0.800781 -3.539062 0.6875 -3.75 C 0.582031 -3.96875 0.53125 -4.234375 0.53125 -4.546875 L 0.53125 -4.609375 C 0.53125 -4.859375 0.582031 -5.09375 0.6875 -5.3125 C 0.789062 -5.53125 0.9375 -5.71875 1.125 -5.875 C 1.320312 -6.039062 1.550781 -6.164062 1.8125 -6.25 C 2.082031 -6.34375 2.378906 -6.390625 2.703125 -6.390625 C 3.078125 -6.390625 3.40625 -6.335938 3.6875 -6.234375 C 3.976562 -6.128906 4.21875 -5.988281 4.40625 -5.8125 C 4.601562 -5.632812 4.75 -5.425781 4.84375 -5.1875 C 4.945312 -4.957031 5 -4.710938 5 -4.453125 L 5 -4.140625 L 3.8125 -4.140625 Z M 3.8125 -4.34375 "/></g></g><g style="fill:#303596;fill-opacity:1;"><g transform="translate(98.643431, 31.170781)"><path style="stroke:none" d="M 3.8125 -4.34375 C 3.8125 -4.601562 3.710938 -4.820312 3.515625 -5 C 3.328125 -5.1875 3.054688 -5.28125 2.703125 -5.28125 C 2.398438 -5.28125 2.160156 -5.21875 1.984375 -5.09375 C 1.816406 -4.976562 1.734375 -4.816406 1.734375 -4.609375 C 1.734375 -4.492188 1.753906 -4.394531 1.796875 -4.3125 C 1.835938 -4.226562 1.910156 -4.148438 2.015625 -4.078125 C 2.117188 -4.003906 2.253906 -3.941406 2.421875 -3.890625 C 2.597656 -3.835938 2.816406 -3.789062 3.078125 -3.75 C 3.734375 -3.625 4.234375 -3.421875 4.578125 -3.140625 C 4.929688 -2.859375 5.109375 -2.441406 5.109375 -1.890625 L 5.109375 -1.796875 C 5.109375 -1.503906 5.054688 -1.238281 4.953125 -1 C 4.847656 -0.757812 4.695312 -0.554688 4.5 -0.390625 C 4.300781 -0.222656 4.0625 -0.09375 3.78125 0 C 3.5 0.0820312 3.179688 0.125 2.828125 0.125 C 2.421875 0.125 2.054688 0.0664062 1.734375 -0.046875 C 1.421875 -0.160156 1.160156 -0.320312 0.953125 -0.53125 C 0.742188 -0.738281 0.585938 -0.976562 0.484375 -1.25 C 0.378906 -1.53125 0.328125 -1.835938 0.328125 -2.171875 L 0.328125 -2.4375 L 1.5 -2.4375 L 1.5 -2.21875 C 1.5 -1.84375 1.609375 -1.539062 1.828125 -1.3125 C 2.046875 -1.09375 2.382812 -0.984375 2.84375 -0.984375 C 3.207031 -0.984375 3.472656 -1.0625 3.640625 -1.21875 C 3.816406 -1.375 3.90625 -1.554688 3.90625 -1.765625 C 3.90625 -1.867188 3.882812 -1.96875 3.84375 -2.0625 C 3.8125 -2.15625 3.75 -2.238281 3.65625 -2.3125 C 3.570312 -2.382812 3.453125 -2.453125 3.296875 -2.515625 C 3.140625 -2.578125 2.941406 -2.628906 2.703125 -2.671875 C 2.390625 -2.722656 2.097656 -2.789062 1.828125 -2.875 C 1.566406 -2.96875 1.335938 -3.082031 1.140625 -3.21875 C 0.953125 -3.363281 0.800781 -3.539062 0.6875 -3.75 C 0.582031 -3.96875 0.53125 -4.234375 0.53125 -4.546875 L 0.53125 -4.609375 C 0.53125 -4.859375 0.582031 -5.09375 0.6875 -5.3125 C 0.789062 -5.53125 0.9375 -5.71875 1.125 -5.875 C 1.320312 -6.039062 1.550781 -6.164062 1.8125 -6.25 C 2.082031 -6.34375 2.378906 -6.390625 2.703125 -6.390625 C 3.078125 -6.390625 3.40625 -6.335938 3.6875 -6.234375 C 3.976562 -6.128906 4.21875 -5.988281 4.40625 -5.8125 C 4.601562 -5.632812 4.75 -5.425781 4.84375 -5.1875 C 4.945312 -4.957031 5 -4.710938 5 -4.453125 L 5 -4.140625 L 3.8125 -4.140625 Z M 3.8125 -4.34375 "/></g></g><g style="fill:#303596;fill-opacity:1;"><g transform="translate(105.019441, 31.170781)"><path style="stroke:none" d="M 3.8125 -1.34375 L 1.671875 -1.34375 L 1.375 0 L 0.140625 0 L 1.625 -6.265625 L 3.84375 -6.265625 L 5.34375 0 L 4.109375 0 Z M 1.921875 -2.46875 L 3.546875 -2.46875 L 2.8125 -5.671875 L 2.65625 -5.671875 Z M 1.921875 -2.46875 "/></g></g><g style="fill:#303596;fill-opacity:1;"><g transform="translate(111.395451, 31.170781)"><path style="stroke:none" d="M 3.8125 -4.34375 C 3.8125 -4.601562 3.710938 -4.820312 3.515625 -5 C 3.328125 -5.1875 3.054688 -5.28125 2.703125 -5.28125 C 2.398438 -5.28125 2.160156 -5.21875 1.984375 -5.09375 C 1.816406 -4.976562 1.734375 -4.816406 1.734375 -4.609375 C 1.734375 -4.492188 1.753906 -4.394531 1.796875 -4.3125 C 1.835938 -4.226562 1.910156 -4.148438 2.015625 -4.078125 C 2.117188 -4.003906 2.253906 -3.941406 2.421875 -3.890625 C 2.597656 -3.835938 2.816406 -3.789062 3.078125 -3.75 C 3.734375 -3.625 4.234375 -3.421875 4.578125 -3.140625 C 4.929688 -2.859375 5.109375 -2.441406 5.109375 -1.890625 L 5.109375 -1.796875 C 5.109375 -1.503906 5.054688 -1.238281 4.953125 -1 C 4.847656 -0.757812 4.695312 -0.554688 4.5 -0.390625 C 4.300781 -0.222656 4.0625 -0.09375 3.78125 0 C 3.5 0.0820312 3.179688 0.125 2.828125 0.125 C 2.421875 0.125 2.054688 0.0664062 1.734375 -0.046875 C 1.421875 -0.160156 1.160156 -0.320312 0.953125 -0.53125 C 0.742188 -0.738281 0.585938 -0.976562 0.484375 -1.25 C 0.378906 -1.53125 0.328125 -1.835938 0.328125 -2.171875 L 0.328125 -2.4375 L 1.5 -2.4375 L 1.5 -2.21875 C 1.5 -1.84375 1.609375 -1.539062 1.828125 -1.3125 C 2.046875 -1.09375 2.382812 -0.984375 2.84375 -0.984375 C 3.207031 -0.984375 3.472656 -1.0625 3.640625 -1.21875 C 3.816406 -1.375 3.90625 -1.554688 3.90625 -1.765625 C 3.90625 -1.867188 3.882812 -1.96875 3.84375 -2.0625 C 3.8125 -2.15625 3.75 -2.238281 3.65625 -2.3125 C 3.570312 -2.382812 3.453125 -2.453125 3.296875 -2.515625 C 3.140625 -2.578125 2.941406 -2.628906 2.703125 -2.671875 C 2.390625 -2.722656 2.097656 -2.789062 1.828125 -2.875 C 1.566406 -2.96875 1.335938 -3.082031 1.140625 -3.21875 C 0.953125 -3.363281 0.800781 -3.539062 0.6875 -3.75 C 0.582031 -3.96875 0.53125 -4.234375 0.53125 -4.546875 L 0.53125 -4.609375 C 0.53125 -4.859375 0.582031 -5.09375 0.6875 -5.3125 C 0.789062 -5.53125 0.9375 -5.71875 1.125 -5.875 C 1.320312 -6.039062 1.550781 -6.164062 1.8125 -6.25 C 2.082031 -6.34375 2.378906 -6.390625 2.703125 -6.390625 C 3.078125 -6.390625 3.40625 -6.335938 3.6875 -6.234375 C 3.976562 -6.128906 4.21875 -5.988281 4.40625 -5.8125 C 4.601562 -5.632812 4.75 -5.425781 4.84375 -5.1875 C 4.945312 -4.957031 5 -4.710938 5 -4.453125 L 5 -4.140625 L 3.8125 -4.140625 Z M 3.8125 -4.34375 "/></g></g><g style="fill:#303596;fill-opacity:1;"><g transform="translate(117.77146, 31.170781)"><path style="stroke:none" d=""/></g></g><g style="fill:#303596;fill-opacity:1;"><g transform="translate(124.14747, 31.170781)"><path style="stroke:none" d="M 0.484375 -6.265625 L 5 -6.265625 L 5 -5.140625 L 3.328125 -5.140625 L 3.328125 0 L 2.15625 0 L 2.15625 -5.140625 L 0.484375 -5.140625 Z M 0.484375 -6.265625 "/></g></g><g style="fill:#303596;fill-opacity:1;"><g transform="translate(130.52348, 31.170781)"><path style="stroke:none" d="M 0.734375 -6.265625 L 4.6875 -6.265625 L 4.6875 -5.140625 L 1.921875 -5.140625 L 1.921875 -3.703125 L 4.578125 -3.703125 L 4.578125 -2.578125 L 1.921875 -2.578125 L 1.921875 -1.125 L 4.796875 -1.125 L 4.796875 0 L 0.734375 0 Z M 0.734375 -6.265625 "/></g></g><g style="fill:#303596;fill-opacity:1;"><g transform="translate(136.89949, 31.170781)"><path style="stroke:none" d="M 2.75 -0.953125 C 2.976562 -0.953125 3.164062 -0.984375 3.3125 -1.046875 C 3.457031 -1.117188 3.570312 -1.210938 3.65625 -1.328125 C 3.738281 -1.441406 3.796875 -1.570312 3.828125 -1.71875 C 3.859375 -1.875 3.875 -2.035156 3.875 -2.203125 L 3.875 -2.359375 L 5.046875 -2.359375 L 5.046875 -2.203125 C 5.046875 -1.453125 4.847656 -0.875 4.453125 -0.46875 C 4.066406 -0.0703125 3.5 0.125 2.75 0.125 C 2.039062 0.125 1.476562 -0.09375 1.0625 -0.53125 C 0.644531 -0.96875 0.4375 -1.601562 0.4375 -2.4375 L 0.4375 -3.828125 C 0.4375 -4.234375 0.488281 -4.59375 0.59375 -4.90625 C 0.695312 -5.226562 0.847656 -5.5 1.046875 -5.71875 C 1.253906 -5.9375 1.5 -6.101562 1.78125 -6.21875 C 2.070312 -6.332031 2.394531 -6.390625 2.75 -6.390625 C 3.125 -6.390625 3.453125 -6.332031 3.734375 -6.21875 C 4.023438 -6.113281 4.265625 -5.960938 4.453125 -5.765625 C 4.648438 -5.566406 4.796875 -5.320312 4.890625 -5.03125 C 4.992188 -4.75 5.046875 -4.425781 5.046875 -4.0625 L 5.046875 -3.90625 L 3.875 -3.90625 L 3.875 -4.0625 C 3.875 -4.207031 3.851562 -4.351562 3.8125 -4.5 C 3.78125 -4.65625 3.722656 -4.789062 3.640625 -4.90625 C 3.554688 -5.03125 3.441406 -5.128906 3.296875 -5.203125 C 3.148438 -5.273438 2.96875 -5.3125 2.75 -5.3125 C 2.5625 -5.3125 2.394531 -5.273438 2.25 -5.203125 C 2.101562 -5.128906 1.984375 -5.023438 1.890625 -4.890625 C 1.796875 -4.765625 1.722656 -4.617188 1.671875 -4.453125 C 1.628906 -4.285156 1.609375 -4.109375 1.609375 -3.921875 L 1.609375 -2.34375 C 1.609375 -2.144531 1.628906 -1.957031 1.671875 -1.78125 C 1.710938 -1.613281 1.773438 -1.46875 1.859375 -1.34375 C 1.953125 -1.21875 2.070312 -1.117188 2.21875 -1.046875 C 2.363281 -0.984375 2.539062 -0.953125 2.75 -0.953125 Z M 2.75 -0.953125 "/></g></g><g style="fill:#303596;fill-opacity:1;"><g transform="translate(143.2755, 31.170781)"><path style="stroke:none" d="M 3.59375 -0.59375 L 3.75 -0.59375 L 3.75 -6.265625 L 4.9375 -6.265625 L 4.9375 0 L 2.625 0 L 1.890625 -5.671875 L 1.734375 -5.671875 L 1.734375 0 L 0.546875 0 L 0.546875 -6.265625 L 2.859375 -6.265625 Z M 3.59375 -0.59375 "/></g></g><g style="fill:#303596;fill-opacity:1;"><g transform="translate(149.651509, 31.170781)"><path style="stroke:none" d="M 0.4375 -3.828125 C 0.4375 -4.640625 0.640625 -5.269531 1.046875 -5.71875 C 1.453125 -6.164062 2.015625 -6.390625 2.734375 -6.390625 C 3.460938 -6.390625 4.03125 -6.164062 4.4375 -5.71875 C 4.84375 -5.269531 5.046875 -4.640625 5.046875 -3.828125 L 5.046875 -2.4375 C 5.046875 -1.601562 4.84375 -0.96875 4.4375 -0.53125 C 4.03125 -0.09375 3.460938 0.125 2.734375 0.125 C 2.015625 0.125 1.453125 -0.09375 1.046875 -0.53125 C 0.640625 -0.96875 0.4375 -1.601562 0.4375 -2.4375 Z M 2.734375 -0.953125 C 2.953125 -0.953125 3.128906 -0.984375 3.265625 -1.046875 C 3.410156 -1.117188 3.53125 -1.21875 3.625 -1.34375 C 3.71875 -1.46875 3.78125 -1.613281 3.8125 -1.78125 C 3.851562 -1.957031 3.875 -2.148438 3.875 -2.359375 L 3.875 -3.90625 C 3.875 -4.101562 3.851562 -4.285156 3.8125 -4.453125 C 3.769531 -4.628906 3.703125 -4.78125 3.609375 -4.90625 C 3.515625 -5.03125 3.394531 -5.128906 3.25 -5.203125 C 3.113281 -5.273438 2.941406 -5.3125 2.734375 -5.3125 C 2.535156 -5.3125 2.363281 -5.273438 2.21875 -5.203125 C 2.070312 -5.128906 1.953125 -5.03125 1.859375 -4.90625 C 1.773438 -4.78125 1.710938 -4.628906 1.671875 -4.453125 C 1.628906 -4.285156 1.609375 -4.101562 1.609375 -3.90625 L 1.609375 -2.359375 C 1.609375 -2.148438 1.625 -1.957031 1.65625 -1.78125 C 1.695312 -1.613281 1.757812 -1.46875 1.84375 -1.34375 C 1.9375 -1.21875 2.054688 -1.117188 2.203125 -1.046875 C 2.347656 -0.984375 2.523438 -0.953125 2.734375 -0.953125 Z M 2.734375 -0.953125 "/></g></g><g style="fill:#303596;fill-opacity:1;"><g transform="translate(156.027519, 31.170781)"><path style="stroke:none" d="M 0.734375 -6.265625 L 1.921875 -6.265625 L 1.921875 -1.125 L 4.765625 -1.125 L 4.765625 0 L 0.734375 0 Z M 0.734375 -6.265625 "/></g></g><g style="fill:#303596;fill-opacity:1;"><g transform="translate(162.403529, 31.170781)"><path style="stroke:none" d="M 0.4375 -3.828125 C 0.4375 -4.640625 0.640625 -5.269531 1.046875 -5.71875 C 1.453125 -6.164062 2.015625 -6.390625 2.734375 -6.390625 C 3.460938 -6.390625 4.03125 -6.164062 4.4375 -5.71875 C 4.84375 -5.269531 5.046875 -4.640625 5.046875 -3.828125 L 5.046875 -2.4375 C 5.046875 -1.601562 4.84375 -0.96875 4.4375 -0.53125 C 4.03125 -0.09375 3.460938 0.125 2.734375 0.125 C 2.015625 0.125 1.453125 -0.09375 1.046875 -0.53125 C 0.640625 -0.96875 0.4375 -1.601562 0.4375 -2.4375 Z M 2.734375 -0.953125 C 2.953125 -0.953125 3.128906 -0.984375 3.265625 -1.046875 C 3.410156 -1.117188 3.53125 -1.21875 3.625 -1.34375 C 3.71875 -1.46875 3.78125 -1.613281 3.8125 -1.78125 C 3.851562 -1.957031 3.875 -2.148438 3.875 -2.359375 L 3.875 -3.90625 C 3.875 -4.101562 3.851562 -4.285156 3.8125 -4.453125 C 3.769531 -4.628906 3.703125 -4.78125 3.609375 -4.90625 C 3.515625 -5.03125 3.394531 -5.128906 3.25 -5.203125 C 3.113281 -5.273438 2.941406 -5.3125 2.734375 -5.3125 C 2.535156 -5.3125 2.363281 -5.273438 2.21875 -5.203125 C 2.070312 -5.128906 1.953125 -5.03125 1.859375 -4.90625 C 1.773438 -4.78125 1.710938 -4.628906 1.671875 -4.453125 C 1.628906 -4.285156 1.609375 -4.101562 1.609375 -3.90625 L 1.609375 -2.359375 C 1.609375 -2.148438 1.625 -1.957031 1.65625 -1.78125 C 1.695312 -1.613281 1.757812 -1.46875 1.84375 -1.34375 C 1.9375 -1.21875 2.054688 -1.117188 2.203125 -1.046875 C 2.347656 -0.984375 2.523438 -0.953125 2.734375 -0.953125 Z M 2.734375 -0.953125 "/></g></g><g style="fill:#303596;fill-opacity:1;"><g transform="translate(168.779539, 31.170781)"><path style="stroke:none" d="M 2.328125 -3.171875 L 5.015625 -3.171875 L 5.015625 0 L 3.9375 0 L 3.9375 -0.703125 L 3.78125 -0.703125 C 3.707031 -0.460938 3.566406 -0.265625 3.359375 -0.109375 C 3.160156 0.046875 2.859375 0.125 2.453125 0.125 C 2.160156 0.125 1.890625 0.0703125 1.640625 -0.03125 C 1.390625 -0.144531 1.171875 -0.304688 0.984375 -0.515625 C 0.804688 -0.722656 0.660156 -0.984375 0.546875 -1.296875 C 0.441406 -1.609375 0.390625 -1.976562 0.390625 -2.40625 L 0.390625 -3.875 C 0.390625 -4.269531 0.445312 -4.625 0.5625 -4.9375 C 0.6875 -5.257812 0.847656 -5.523438 1.046875 -5.734375 C 1.253906 -5.953125 1.5 -6.113281 1.78125 -6.21875 C 2.070312 -6.332031 2.390625 -6.390625 2.734375 -6.390625 C 3.097656 -6.390625 3.421875 -6.332031 3.703125 -6.21875 C 3.984375 -6.101562 4.21875 -5.941406 4.40625 -5.734375 C 4.601562 -5.523438 4.753906 -5.28125 4.859375 -5 C 4.960938 -4.726562 5.015625 -4.4375 5.015625 -4.125 L 5.015625 -4.015625 L 3.828125 -4.015625 L 3.828125 -4.125 C 3.828125 -4.5 3.726562 -4.78125 3.53125 -4.96875 C 3.34375 -5.164062 3.070312 -5.265625 2.71875 -5.265625 C 2.382812 -5.265625 2.109375 -5.148438 1.890625 -4.921875 C 1.679688 -4.703125 1.578125 -4.320312 1.578125 -3.78125 L 1.578125 -2.453125 C 1.578125 -1.484375 1.96875 -1 2.75 -1 C 3.101562 -1 3.367188 -1.09375 3.546875 -1.28125 C 3.734375 -1.46875 3.828125 -1.722656 3.828125 -2.046875 L 2.328125 -2.046875 Z M 2.328125 -3.171875 "/></g></g><g style="fill:#303596;fill-opacity:1;"><g transform="translate(175.155549, 31.170781)"><path style="stroke:none" d="M 0.640625 -6.265625 L 4.828125 -6.265625 L 4.828125 -5.140625 L 3.328125 -5.140625 L 3.328125 -1.125 L 4.828125 -1.125 L 4.828125 0 L 0.640625 0 L 0.640625 -1.125 L 2.15625 -1.125 L 2.15625 -5.140625 L 0.640625 -5.140625 Z M 0.640625 -6.265625 "/></g></g><g style="fill:#303596;fill-opacity:1;"><g transform="translate(181.531558, 31.170781)"><path style="stroke:none" d="M 3.8125 -1.34375 L 1.671875 -1.34375 L 1.375 0 L 0.140625 0 L 1.625 -6.265625 L 3.84375 -6.265625 L 5.34375 0 L 4.109375 0 Z M 1.921875 -2.46875 L 3.546875 -2.46875 L 2.8125 -5.671875 L 2.65625 -5.671875 Z M 1.921875 -2.46875 "/></g></g><g style="fill:#303596;fill-opacity:1;"><g transform="translate(187.907568, 31.170781)"><path style="stroke:none" d="M 3.8125 -4.34375 C 3.8125 -4.601562 3.710938 -4.820312 3.515625 -5 C 3.328125 -5.1875 3.054688 -5.28125 2.703125 -5.28125 C 2.398438 -5.28125 2.160156 -5.21875 1.984375 -5.09375 C 1.816406 -4.976562 1.734375 -4.816406 1.734375 -4.609375 C 1.734375 -4.492188 1.753906 -4.394531 1.796875 -4.3125 C 1.835938 -4.226562 1.910156 -4.148438 2.015625 -4.078125 C 2.117188 -4.003906 2.253906 -3.941406 2.421875 -3.890625 C 2.597656 -3.835938 2.816406 -3.789062 3.078125 -3.75 C 3.734375 -3.625 4.234375 -3.421875 4.578125 -3.140625 C 4.929688 -2.859375 5.109375 -2.441406 5.109375 -1.890625 L 5.109375 -1.796875 C 5.109375 -1.503906 5.054688 -1.238281 4.953125 -1 C 4.847656 -0.757812 4.695312 -0.554688 4.5 -0.390625 C 4.300781 -0.222656 4.0625 -0.09375 3.78125 0 C 3.5 0.0820312 3.179688 0.125 2.828125 0.125 C 2.421875 0.125 2.054688 0.0664062 1.734375 -0.046875 C 1.421875 -0.160156 1.160156 -0.320312 0.953125 -0.53125 C 0.742188 -0.738281 0.585938 -0.976562 0.484375 -1.25 C 0.378906 -1.53125 0.328125 -1.835938 0.328125 -2.171875 L 0.328125 -2.4375 L 1.5 -2.4375 L 1.5 -2.21875 C 1.5 -1.84375 1.609375 -1.539062 1.828125 -1.3125 C 2.046875 -1.09375 2.382812 -0.984375 2.84375 -0.984375 C 3.207031 -0.984375 3.472656 -1.0625 3.640625 -1.21875 C 3.816406 -1.375 3.90625 -1.554688 3.90625 -1.765625 C 3.90625 -1.867188 3.882812 -1.96875 3.84375 -2.0625 C 3.8125 -2.15625 3.75 -2.238281 3.65625 -2.3125 C 3.570312 -2.382812 3.453125 -2.453125 3.296875 -2.515625 C 3.140625 -2.578125 2.941406 -2.628906 2.703125 -2.671875 C 2.390625 -2.722656 2.097656 -2.789062 1.828125 -2.875 C 1.566406 -2.96875 1.335938 -3.082031 1.140625 -3.21875 C 0.953125 -3.363281 0.800781 -3.539062 0.6875 -3.75 C 0.582031 -3.96875 0.53125 -4.234375 0.53125 -4.546875 L 0.53125 -4.609375 C 0.53125 -4.859375 0.582031 -5.09375 0.6875 -5.3125 C 0.789062 -5.53125 0.9375 -5.71875 1.125 -5.875 C 1.320312 -6.039062 1.550781 -6.164062 1.8125 -6.25 C 2.082031 -6.34375 2.378906 -6.390625 2.703125 -6.390625 C 3.078125 -6.390625 3.40625 -6.335938 3.6875 -6.234375 C 3.976562 -6.128906 4.21875 -5.988281 4.40625 -5.8125 C 4.601562 -5.632812 4.75 -5.425781 4.84375 -5.1875 C 4.945312 -4.957031 5 -4.710938 5 -4.453125 L 5 -4.140625 L 3.8125 -4.140625 Z M 3.8125 -4.34375 "/></g></g><g style="fill:#303596;fill-opacity:1;"><g transform="translate(194.283578, 31.170781)"><path style="stroke:none" d=""/></g></g><g style="fill:#303596;fill-opacity:1;"><g transform="translate(200.659588, 31.170781)"><path style="stroke:none" d="M 1.828125 -2.359375 L 1.828125 0 L 0.640625 0 L 0.640625 -6.265625 L 3.09375 -6.265625 C 3.414062 -6.265625 3.695312 -6.210938 3.9375 -6.109375 C 4.175781 -6.003906 4.375 -5.863281 4.53125 -5.6875 C 4.6875 -5.519531 4.804688 -5.328125 4.890625 -5.109375 C 4.972656 -4.898438 5.015625 -4.679688 5.015625 -4.453125 L 5.015625 -4.234375 C 5.015625 -4.003906 4.972656 -3.773438 4.890625 -3.546875 C 4.804688 -3.328125 4.6875 -3.128906 4.53125 -2.953125 C 4.375 -2.773438 4.175781 -2.628906 3.9375 -2.515625 C 3.695312 -2.410156 3.414062 -2.359375 3.09375 -2.359375 Z M 1.828125 -3.484375 L 2.984375 -3.484375 C 3.242188 -3.484375 3.445312 -3.554688 3.59375 -3.703125 C 3.75 -3.847656 3.828125 -4.035156 3.828125 -4.265625 L 3.828125 -4.375 C 3.828125 -4.59375 3.75 -4.773438 3.59375 -4.921875 C 3.445312 -5.066406 3.242188 -5.140625 2.984375 -5.140625 L 1.828125 -5.140625 Z M 1.828125 -3.484375 "/></g></g><g style="fill:#303596;fill-opacity:1;"><g transform="translate(207.035598, 31.170781)"><path style="stroke:none" d="M 3.8125 -1.34375 L 1.671875 -1.34375 L 1.375 0 L 0.140625 0 L 1.625 -6.265625 L 3.84375 -6.265625 L 5.34375 0 L 4.109375 0 Z M 1.921875 -2.46875 L 3.546875 -2.46875 L 2.8125 -5.671875 L 2.65625 -5.671875 Z M 1.921875 -2.46875 "/></g></g><g style="fill:#303596;fill-opacity:1;"><g transform="translate(213.411607, 31.170781)"><path style="stroke:none" d="M 4.859375 0 L 3.6875 0 L 3.6875 -1.875 C 3.6875 -2.019531 3.644531 -2.132812 3.5625 -2.21875 C 3.488281 -2.3125 3.367188 -2.359375 3.203125 -2.359375 L 1.828125 -2.359375 L 1.828125 0 L 0.65625 0 L 0.65625 -6.265625 L 3.046875 -6.265625 C 3.367188 -6.265625 3.648438 -6.21875 3.890625 -6.125 C 4.140625 -6.039062 4.347656 -5.921875 4.515625 -5.765625 C 4.679688 -5.609375 4.804688 -5.421875 4.890625 -5.203125 C 4.972656 -4.992188 5.015625 -4.773438 5.015625 -4.546875 L 5.015625 -4.328125 C 5.015625 -4.066406 4.945312 -3.820312 4.8125 -3.59375 C 4.675781 -3.375 4.46875 -3.207031 4.1875 -3.09375 L 4.1875 -2.921875 C 4.394531 -2.898438 4.554688 -2.820312 4.671875 -2.6875 C 4.796875 -2.550781 4.859375 -2.378906 4.859375 -2.171875 Z M 1.828125 -3.484375 L 2.96875 -3.484375 C 3.25 -3.484375 3.460938 -3.550781 3.609375 -3.6875 C 3.765625 -3.820312 3.84375 -4.015625 3.84375 -4.265625 L 3.84375 -4.375 C 3.84375 -4.582031 3.765625 -4.757812 3.609375 -4.90625 C 3.460938 -5.0625 3.25 -5.140625 2.96875 -5.140625 L 1.828125 -5.140625 Z M 1.828125 -3.484375 "/></g></g><g style="fill:#303596;fill-opacity:1;"><g transform="translate(219.787617, 31.170781)"><path style="stroke:none" d="M 3.8125 -1.34375 L 1.671875 -1.34375 L 1.375 0 L 0.140625 0 L 1.625 -6.265625 L 3.84375 -6.265625 L 5.34375 0 L 4.109375 0 Z M 1.921875 -2.46875 L 3.546875 -2.46875 L 2.8125 -5.671875 L 2.65625 -5.671875 Z M 1.921875 -2.46875 "/></g></g><g style="fill:#303596;fill-opacity:1;"><g transform="translate(226.163627, 31.170781)"><path style="stroke:none" d=""/></g></g><g style="fill:#303596;fill-opacity:1;"><g transform="translate(232.539637, 31.170781)"><path style="stroke:none" d="M 0.40625 -6.265625 L 2.6875 -6.265625 C 3.457031 -6.265625 4.03125 -6.082031 4.40625 -5.71875 C 4.789062 -5.363281 4.984375 -4.804688 4.984375 -4.046875 L 4.984375 -2.21875 C 4.984375 -1.457031 4.789062 -0.894531 4.40625 -0.53125 C 4.03125 -0.175781 3.457031 0 2.6875 0 L 0.40625 0 L 0.40625 -1.140625 L 1 -1.140625 L 1 -5.140625 L 0.40625 -5.140625 Z M 2.6875 -1.125 C 3.09375 -1.125 3.378906 -1.21875 3.546875 -1.40625 C 3.710938 -1.601562 3.796875 -1.910156 3.796875 -2.328125 L 3.796875 -4.046875 C 3.796875 -4.398438 3.710938 -4.671875 3.546875 -4.859375 C 3.378906 -5.046875 3.09375 -5.140625 2.6875 -5.140625 L 2.1875 -5.140625 L 2.1875 -1.125 Z M 2.6875 -1.125 "/></g></g><g style="fill:#303596;fill-opacity:1;"><g transform="translate(238.915646, 31.170781)"><path style="stroke:none" d="M 3.8125 -1.34375 L 1.671875 -1.34375 L 1.375 0 L 0.140625 0 L 1.625 -6.265625 L 3.84375 -6.265625 L 5.34375 0 L 4.109375 0 Z M 1.921875 -2.46875 L 3.546875 -2.46875 L 2.8125 -5.671875 L 2.65625 -5.671875 Z M 1.921875 -2.46875 "/></g></g><g style="fill:#303596;fill-opacity:1;"><g transform="translate(245.291656, 31.170781)"><path style="stroke:none" d="M 4.859375 0 L 3.6875 0 L 3.6875 -1.875 C 3.6875 -2.019531 3.644531 -2.132812 3.5625 -2.21875 C 3.488281 -2.3125 3.367188 -2.359375 3.203125 -2.359375 L 1.828125 -2.359375 L 1.828125 0 L 0.65625 0 L 0.65625 -6.265625 L 3.046875 -6.265625 C 3.367188 -6.265625 3.648438 -6.21875 3.890625 -6.125 C 4.140625 -6.039062 4.347656 -5.921875 4.515625 -5.765625 C 4.679688 -5.609375 4.804688 -5.421875 4.890625 -5.203125 C 4.972656 -4.992188 5.015625 -4.773438 5.015625 -4.546875 L 5.015625 -4.328125 C 5.015625 -4.066406 4.945312 -3.820312 4.8125 -3.59375 C 4.675781 -3.375 4.46875 -3.207031 4.1875 -3.09375 L 4.1875 -2.921875 C 4.394531 -2.898438 4.554688 -2.820312 4.671875 -2.6875 C 4.796875 -2.550781 4.859375 -2.378906 4.859375 -2.171875 Z M 1.828125 -3.484375 L 2.96875 -3.484375 C 3.25 -3.484375 3.460938 -3.550781 3.609375 -3.6875 C 3.765625 -3.820312 3.84375 -4.015625 3.84375 -4.265625 L 3.84375 -4.375 C 3.84375 -4.582031 3.765625 -4.757812 3.609375 -4.90625 C 3.460938 -5.0625 3.25 -5.140625 2.96875 -5.140625 L 1.828125 -5.140625 Z M 1.828125 -3.484375 "/></g></g><g style="fill:#303596;fill-opacity:1;"><g transform="translate(251.667666, 31.170781)"><path style="stroke:none" d=""/></g></g><g style="fill:#303596;fill-opacity:1;"><g transform="translate(258.043676, 31.170781)"><path style="stroke:none" d="M 0.21875 -6.265625 L 1.4375 -6.265625 L 2.65625 -0.59375 L 2.8125 -0.59375 L 4.046875 -6.265625 L 5.265625 -6.265625 L 3.84375 0 L 1.625 0 Z M 0.21875 -6.265625 "/></g></g><g style="fill:#303596;fill-opacity:1;"><g transform="translate(264.419686, 31.170781)"><path style="stroke:none" d="M 0.640625 -6.265625 L 4.828125 -6.265625 L 4.828125 -5.140625 L 3.328125 -5.140625 L 3.328125 -1.125 L 4.828125 -1.125 L 4.828125 0 L 0.640625 0 L 0.640625 -1.125 L 2.15625 -1.125 L 2.15625 -5.140625 L 0.640625 -5.140625 Z M 0.640625 -6.265625 "/></g></g><g style="fill:#303596;fill-opacity:1;"><g transform="translate(270.795695, 31.170781)"><path style="stroke:none" d="M 0.40625 -6.265625 L 2.6875 -6.265625 C 3.457031 -6.265625 4.03125 -6.082031 4.40625 -5.71875 C 4.789062 -5.363281 4.984375 -4.804688 4.984375 -4.046875 L 4.984375 -2.21875 C 4.984375 -1.457031 4.789062 -0.894531 4.40625 -0.53125 C 4.03125 -0.175781 3.457031 0 2.6875 0 L 0.40625 0 L 0.40625 -1.140625 L 1 -1.140625 L 1 -5.140625 L 0.40625 -5.140625 Z M 2.6875 -1.125 C 3.09375 -1.125 3.378906 -1.21875 3.546875 -1.40625 C 3.710938 -1.601562 3.796875 -1.910156 3.796875 -2.328125 L 3.796875 -4.046875 C 3.796875 -4.398438 3.710938 -4.671875 3.546875 -4.859375 C 3.378906 -5.046875 3.09375 -5.140625 2.6875 -5.140625 L 2.1875 -5.140625 L 2.1875 -1.125 Z M 2.6875 -1.125 "/></g></g><g style="fill:#303596;fill-opacity:1;"><g transform="translate(277.171705, 31.170781)"><path style="stroke:none" d="M 3.8125 -1.34375 L 1.671875 -1.34375 L 1.375 0 L 0.140625 0 L 1.625 -6.265625 L 3.84375 -6.265625 L 5.34375 0 L 4.109375 0 Z M 1.921875 -2.46875 L 3.546875 -2.46875 L 2.8125 -5.671875 L 2.65625 -5.671875 Z M 1.921875 -2.46875 "/></g></g><g style="fill:#303596;fill-opacity:1;"><g transform="translate(283.547715, 31.170781)"><path style="stroke:none" d=""/></g></g><g style="fill:#303596;fill-opacity:1;"><g transform="translate(289.923725, 31.170781)"><path style="stroke:none" d="M 3.8125 -1.34375 L 1.671875 -1.34375 L 1.375 0 L 0.140625 0 L 1.625 -6.265625 L 3.84375 -6.265625 L 5.34375 0 L 4.109375 0 Z M 1.921875 -2.46875 L 3.546875 -2.46875 L 2.8125 -5.671875 L 2.65625 -5.671875 Z M 1.921875 -2.46875 "/></g></g><g style="fill:#303596;fill-opacity:1;"><g transform="translate(296.299735, 31.170781)"><path style="stroke:none" d="M 0.4375 -3.828125 C 0.4375 -4.640625 0.640625 -5.269531 1.046875 -5.71875 C 1.453125 -6.164062 2.015625 -6.390625 2.734375 -6.390625 C 3.460938 -6.390625 4.03125 -6.164062 4.4375 -5.71875 C 4.84375 -5.269531 5.046875 -4.640625 5.046875 -3.828125 L 5.046875 -2.4375 C 5.046875 -1.601562 4.84375 -0.96875 4.4375 -0.53125 C 4.03125 -0.09375 3.460938 0.125 2.734375 0.125 C 2.015625 0.125 1.453125 -0.09375 1.046875 -0.53125 C 0.640625 -0.96875 0.4375 -1.601562 0.4375 -2.4375 Z M 2.734375 -0.953125 C 2.953125 -0.953125 3.128906 -0.984375 3.265625 -1.046875 C 3.410156 -1.117188 3.53125 -1.21875 3.625 -1.34375 C 3.71875 -1.46875 3.78125 -1.613281 3.8125 -1.78125 C 3.851562 -1.957031 3.875 -2.148438 3.875 -2.359375 L 3.875 -3.90625 C 3.875 -4.101562 3.851562 -4.285156 3.8125 -4.453125 C 3.769531 -4.628906 3.703125 -4.78125 3.609375 -4.90625 C 3.515625 -5.03125 3.394531 -5.128906 3.25 -5.203125 C 3.113281 -5.273438 2.941406 -5.3125 2.734375 -5.3125 C 2.535156 -5.3125 2.363281 -5.273438 2.21875 -5.203125 C 2.070312 -5.128906 1.953125 -5.03125 1.859375 -4.90625 C 1.773438 -4.78125 1.710938 -4.628906 1.671875 -4.453125 C 1.628906 -4.285156 1.609375 -4.101562 1.609375 -3.90625 L 1.609375 -2.359375 C 1.609375 -2.148438 1.625 -1.957031 1.65625 -1.78125 C 1.695312 -1.613281 1.757812 -1.46875 1.84375 -1.34375 C 1.9375 -1.21875 2.054688 -1.117188 2.203125 -1.046875 C 2.347656 -0.984375 2.523438 -0.953125 2.734375 -0.953125 Z M 2.734375 -0.953125 "/></g></g><g style="fill:#303596;fill-opacity:1;"><g transform="translate(28.507323, 42.36453)"><path style="stroke:none" d="M 0.78125 -6.265625 L 4.796875 -6.265625 L 4.796875 -5.140625 L 1.96875 -5.140625 L 1.96875 -3.703125 L 4.75 -3.703125 L 4.75 -2.578125 L 1.96875 -2.578125 L 1.96875 0 L 0.78125 0 Z M 0.78125 -6.265625 "/></g></g><g style="fill:#303596;fill-opacity:1;"><g transform="translate(34.883333, 42.36453)"><path style="stroke:none" d="M 0.640625 -6.265625 L 4.828125 -6.265625 L 4.828125 -5.140625 L 3.328125 -5.140625 L 3.328125 -1.125 L 4.828125 -1.125 L 4.828125 0 L 0.640625 0 L 0.640625 -1.125 L 2.15625 -1.125 L 2.15625 -5.140625 L 0.640625 -5.140625 Z M 0.640625 -6.265625 "/></g></g><g style="fill:#303596;fill-opacity:1;"><g transform="translate(41.259343, 42.36453)"><path style="stroke:none" d="M 3.59375 -0.59375 L 3.75 -0.59375 L 3.75 -6.265625 L 4.9375 -6.265625 L 4.9375 0 L 2.625 0 L 1.890625 -5.671875 L 1.734375 -5.671875 L 1.734375 0 L 0.546875 0 L 0.546875 -6.265625 L 2.859375 -6.265625 Z M 3.59375 -0.59375 "/></g></g><g style="fill:#303596;fill-opacity:1;"><g transform="translate(47.635353, 42.36453)"><path style="stroke:none" d="M 3.8125 -4.34375 C 3.8125 -4.601562 3.710938 -4.820312 3.515625 -5 C 3.328125 -5.1875 3.054688 -5.28125 2.703125 -5.28125 C 2.398438 -5.28125 2.160156 -5.21875 1.984375 -5.09375 C 1.816406 -4.976562 1.734375 -4.816406 1.734375 -4.609375 C 1.734375 -4.492188 1.753906 -4.394531 1.796875 -4.3125 C 1.835938 -4.226562 1.910156 -4.148438 2.015625 -4.078125 C 2.117188 -4.003906 2.253906 -3.941406 2.421875 -3.890625 C 2.597656 -3.835938 2.816406 -3.789062 3.078125 -3.75 C 3.734375 -3.625 4.234375 -3.421875 4.578125 -3.140625 C 4.929688 -2.859375 5.109375 -2.441406 5.109375 -1.890625 L 5.109375 -1.796875 C 5.109375 -1.503906 5.054688 -1.238281 4.953125 -1 C 4.847656 -0.757812 4.695312 -0.554688 4.5 -0.390625 C 4.300781 -0.222656 4.0625 -0.09375 3.78125 0 C 3.5 0.0820312 3.179688 0.125 2.828125 0.125 C 2.421875 0.125 2.054688 0.0664062 1.734375 -0.046875 C 1.421875 -0.160156 1.160156 -0.320312 0.953125 -0.53125 C 0.742188 -0.738281 0.585938 -0.976562 0.484375 -1.25 C 0.378906 -1.53125 0.328125 -1.835938 0.328125 -2.171875 L 0.328125 -2.4375 L 1.5 -2.4375 L 1.5 -2.21875 C 1.5 -1.84375 1.609375 -1.539062 1.828125 -1.3125 C 2.046875 -1.09375 2.382812 -0.984375 2.84375 -0.984375 C 3.207031 -0.984375 3.472656 -1.0625 3.640625 -1.21875 C 3.816406 -1.375 3.90625 -1.554688 3.90625 -1.765625 C 3.90625 -1.867188 3.882812 -1.96875 3.84375 -2.0625 C 3.8125 -2.15625 3.75 -2.238281 3.65625 -2.3125 C 3.570312 -2.382812 3.453125 -2.453125 3.296875 -2.515625 C 3.140625 -2.578125 2.941406 -2.628906 2.703125 -2.671875 C 2.390625 -2.722656 2.097656 -2.789062 1.828125 -2.875 C 1.566406 -2.96875 1.335938 -3.082031 1.140625 -3.21875 C 0.953125 -3.363281 0.800781 -3.539062 0.6875 -3.75 C 0.582031 -3.96875 0.53125 -4.234375 0.53125 -4.546875 L 0.53125 -4.609375 C 0.53125 -4.859375 0.582031 -5.09375 0.6875 -5.3125 C 0.789062 -5.53125 0.9375 -5.71875 1.125 -5.875 C 1.320312 -6.039062 1.550781 -6.164062 1.8125 -6.25 C 2.082031 -6.34375 2.378906 -6.390625 2.703125 -6.390625 C 3.078125 -6.390625 3.40625 -6.335938 3.6875 -6.234375 C 3.976562 -6.128906 4.21875 -5.988281 4.40625 -5.8125 C 4.601562 -5.632812 4.75 -5.425781 4.84375 -5.1875 C 4.945312 -4.957031 5 -4.710938 5 -4.453125 L 5 -4.140625 L 3.8125 -4.140625 Z M 3.8125 -4.34375 "/></g></g><g style="fill:#303596;fill-opacity:1;"><g transform="translate(54.011363, 42.36453)"><path style="stroke:none" d="M 0.203125 -6.265625 L 2.28125 -6.265625 L 2.625 -1.5625 L 2.625 -0.640625 L 2.84375 -0.640625 L 2.84375 -1.5625 L 3.203125 -6.265625 L 5.28125 -6.265625 L 5.28125 0 L 4.203125 0 L 4.203125 -4.1875 L 4.3125 -5.625 L 4.09375 -5.625 L 3.640625 0 L 1.859375 0 L 1.375 -5.625 L 1.15625 -5.625 L 1.265625 -4.1875 L 1.265625 0 L 0.203125 0 Z M 0.203125 -6.265625 "/></g></g><g style="fill:#303596;fill-opacity:1;"><g transform="translate(60.387372, 42.36453)"><path style="stroke:none" d="M 3.8125 -1.34375 L 1.671875 -1.34375 L 1.375 0 L 0.140625 0 L 1.625 -6.265625 L 3.84375 -6.265625 L 5.34375 0 L 4.109375 0 Z M 1.921875 -2.46875 L 3.546875 -2.46875 L 2.8125 -5.671875 L 2.65625 -5.671875 Z M 1.921875 -2.46875 "/></g></g><g style="fill:#303596;fill-opacity:1;"><g transform="translate(66.763382, 42.36453)"><path style="stroke:none" d="M 4.859375 0 L 3.6875 0 L 3.6875 -1.875 C 3.6875 -2.019531 3.644531 -2.132812 3.5625 -2.21875 C 3.488281 -2.3125 3.367188 -2.359375 3.203125 -2.359375 L 1.828125 -2.359375 L 1.828125 0 L 0.65625 0 L 0.65625 -6.265625 L 3.046875 -6.265625 C 3.367188 -6.265625 3.648438 -6.21875 3.890625 -6.125 C 4.140625 -6.039062 4.347656 -5.921875 4.515625 -5.765625 C 4.679688 -5.609375 4.804688 -5.421875 4.890625 -5.203125 C 4.972656 -4.992188 5.015625 -4.773438 5.015625 -4.546875 L 5.015625 -4.328125 C 5.015625 -4.066406 4.945312 -3.820312 4.8125 -3.59375 C 4.675781 -3.375 4.46875 -3.207031 4.1875 -3.09375 L 4.1875 -2.921875 C 4.394531 -2.898438 4.554688 -2.820312 4.671875 -2.6875 C 4.796875 -2.550781 4.859375 -2.378906 4.859375 -2.171875 Z M 1.828125 -3.484375 L 2.96875 -3.484375 C 3.25 -3.484375 3.460938 -3.550781 3.609375 -3.6875 C 3.765625 -3.820312 3.84375 -4.015625 3.84375 -4.265625 L 3.84375 -4.375 C 3.84375 -4.582031 3.765625 -4.757812 3.609375 -4.90625 C 3.460938 -5.0625 3.25 -5.140625 2.96875 -5.140625 L 1.828125 -5.140625 Z M 1.828125 -3.484375 "/></g></g><g style="fill:#303596;fill-opacity:1;"><g transform="translate(73.139392, 42.36453)"><path style="stroke:none" d="M 0.484375 -6.265625 L 5 -6.265625 L 5 -5.140625 L 3.328125 -5.140625 L 3.328125 0 L 2.15625 0 L 2.15625 -5.140625 L 0.484375 -5.140625 Z M 0.484375 -6.265625 "/></g></g><g style="fill:#303596;fill-opacity:1;"><g transform="translate(79.515402, 42.36453)"><path style="stroke:none" d="M 3.59375 -0.71875 C 3.59375 -0.601562 3.566406 -0.492188 3.515625 -0.390625 C 3.472656 -0.285156 3.410156 -0.195312 3.328125 -0.125 C 3.253906 -0.0507812 3.164062 0.00390625 3.0625 0.046875 C 2.957031 0.0976562 2.847656 0.125 2.734375 0.125 C 2.617188 0.125 2.507812 0.0976562 2.40625 0.046875 C 2.300781 0.00390625 2.207031 -0.0507812 2.125 -0.125 C 2.050781 -0.195312 1.992188 -0.285156 1.953125 -0.390625 C 1.910156 -0.492188 1.890625 -0.601562 1.890625 -0.71875 C 1.890625 -0.84375 1.910156 -0.957031 1.953125 -1.0625 C 1.992188 -1.164062 2.050781 -1.253906 2.125 -1.328125 C 2.207031 -1.398438 2.300781 -1.457031 2.40625 -1.5 C 2.507812 -1.550781 2.617188 -1.578125 2.734375 -1.578125 C 2.847656 -1.578125 2.957031 -1.550781 3.0625 -1.5 C 3.164062 -1.457031 3.253906 -1.398438 3.328125 -1.328125 C 3.410156 -1.253906 3.472656 -1.164062 3.515625 -1.0625 C 3.566406 -0.957031 3.59375 -0.84375 3.59375 -0.71875 Z M 3.59375 -3.71875 C 3.59375 -3.59375 3.566406 -3.476562 3.515625 -3.375 C 3.472656 -3.269531 3.410156 -3.179688 3.328125 -3.109375 C 3.253906 -3.035156 3.164062 -2.972656 3.0625 -2.921875 C 2.957031 -2.878906 2.847656 -2.859375 2.734375 -2.859375 C 2.617188 -2.859375 2.507812 -2.878906 2.40625 -2.921875 C 2.300781 -2.972656 2.207031 -3.035156 2.125 -3.109375 C 2.050781 -3.179688 1.992188 -3.269531 1.953125 -3.375 C 1.910156 -3.476562 1.890625 -3.59375 1.890625 -3.71875 C 1.890625 -3.832031 1.910156 -3.941406 1.953125 -4.046875 C 1.992188 -4.148438 2.050781 -4.238281 2.125 -4.3125 C 2.207031 -4.394531 2.300781 -4.457031 2.40625 -4.5 C 2.507812 -4.539062 2.617188 -4.5625 2.734375 -4.5625 C 2.847656 -4.5625 2.957031 -4.539062 3.0625 -4.5 C 3.164062 -4.457031 3.253906 -4.394531 3.328125 -4.3125 C 3.410156 -4.238281 3.472656 -4.148438 3.515625 -4.046875 C 3.566406 -3.941406 3.59375 -3.832031 3.59375 -3.71875 Z M 3.59375 -3.71875 "/></g></g></g></svg>